<svg width="28" height="20" viewBox="0 0 28 20" fill="none" xmlns="http://www.w3.org/2000/svg">
<path d="M14.7933 7.32009L14.877 7.326C14.9875 7.34227 15.092 7.39402 15.1667 7.50491L19.9267 14.2508L21.14 12.3564C21.2333 12.2178 21.3733 12.1254 21.5133 12.1254C21.6533 12.1254 21.7933 12.1716 21.8867 12.3102L26.1333 18.4092H27.5333C27.8133 18.4092 28 18.594 28 18.8712C28 19.1485 27.8133 19.3333 27.5333 19.3333H0.466667C0.186667 19.3333 0 19.1485 0 18.8712C0 18.594 0.186667 18.4092 0.466667 18.4092H1.82L7 9.49171C7.09333 9.35309 7.23333 9.26068 7.42 9.26068C7.60667 9.26068 7.74667 9.35309 7.84 9.49171L10.3133 13.4653L14.42 7.50491C14.5133 7.4125 14.6533 7.32009 14.7933 7.32009ZM14.7467 8.66002L10.5933 14.6204C10.5467 14.7128 10.36 14.8052 10.22 14.8052C10.08 14.8052 9.94 14.7128 9.84667 14.5742L7.42 10.6468L2.89333 18.4554H24.92L21.42 13.4653L20.2067 15.3597C20.1133 15.4983 19.9733 15.5907 19.8333 15.5907C19.6933 15.5907 19.5533 15.5445 19.46 15.4059L14.7467 8.66002ZM23.3333 0.666626C25.0133 0.666626 26.3667 2.00656 26.3667 3.66993C26.3667 5.33329 25.0133 6.67323 23.3333 6.67323C21.6533 6.67323 20.3 5.33329 20.3 3.66993C20.3 2.00656 21.6533 0.666626 23.3333 0.666626ZM23.3333 1.59072C22.1667 1.59072 21.2333 2.51481 21.2333 3.66993C21.2333 4.82504 22.1667 5.74913 23.3333 5.74913C24.5 5.74913 25.4333 4.82504 25.4333 3.66993C25.4333 2.51481 24.5 1.59072 23.3333 1.59072Z" fill="white"/>
</svg>
