<svg width="28" height="28" viewBox="0 0 28 28" fill="none" xmlns="http://www.w3.org/2000/svg">
<path d="M10.9667 0C13.9067 0 16.66 1.12 18.7133 3.22C22.9133 7.37333 23.0067 14.0933 19.04 18.3867L27.86 27.2067C28.0467 27.3933 28.0467 27.6733 27.86 27.86C27.7667 27.9533 27.6267 28 27.5333 28C27.44 28 27.3 27.9533 27.2067 27.86L18.3867 19.04C16.3333 20.9067 13.72 21.9333 10.9667 21.9333C8.02667 21.9333 5.27333 20.7667 3.22 18.7133C-1.07333 14.4667 -1.07333 7.46667 3.22 3.22C5.27333 1.12 8.02667 0 10.9667 0ZM10.9667 0.933333C8.30667 0.933333 5.78667 1.96 3.87333 3.87333C-0.0466666 7.79333 -0.0466666 14.14 3.87333 18.06C5.78667 19.9733 8.30667 21 10.9667 21C13.6733 21 16.1467 19.9267 18.06 18.06L18.2905 17.8219C21.9784 13.8871 21.9016 7.71493 18.06 3.87333C16.1467 1.96 13.6267 0.933333 10.9667 0.933333ZM10.9667 7.32667C14.1867 7.32667 16.7067 10.1267 16.8 10.2667C16.94 10.4533 16.94 10.7333 16.8 10.8733C16.7067 10.9667 14.1867 13.8133 10.9667 13.8133C7.74667 13.8133 5.22667 11.0133 5.13333 10.8733C4.99333 10.6867 4.99333 10.4533 5.13333 10.2667C5.22667 10.1733 7.74667 7.32667 10.9667 7.32667ZM10.9667 8.26C8.77333 8.26 6.86 9.89333 6.16 10.5933C6.86 11.2933 8.77333 12.9267 10.9667 12.9267C13.16 12.9267 15.0733 11.2933 15.7733 10.5933C15.0733 9.89333 13.16 8.26 10.9667 8.26ZM10.9667 9.56667C11.5267 9.56667 11.9933 10.0333 11.9933 10.5933C11.9933 11.1533 11.5267 11.62 10.9667 11.62C10.4067 11.62 9.94 11.1533 9.94 10.5933C9.94 10.0333 10.4067 9.56667 10.9667 9.56667Z" fill="white"/>
</svg>
