<svg width="26" height="28" viewBox="0 0 26 28" fill="none" xmlns="http://www.w3.org/2000/svg">
<path d="M22.8542 0C24.5042 0 25.8334 1.39535 25.8334 3.06977V21.7209C25.8334 21.814 25.8334 21.8605 25.7875 21.9535L22.4417 27.5349C22.2584 27.814 21.9834 28 21.6625 28C21.3417 28 21.0667 27.814 20.8834 27.5349L17.5375 21.9535C17.4917 21.907 17.4917 21.814 17.4917 21.7209V3.06977C17.4917 1.39535 18.8667 0 20.5167 0H22.8542ZM8.64585 0.0930233C9.88335 0.0930233 10.9375 1.11628 10.9375 2.4186V25.6279C10.9375 26.9302 9.92919 27.9535 8.64585 27.9535H2.45835C1.17502 27.9535 0.166687 26.9302 0.166687 25.6279V2.4186C0.166687 1.11628 1.17502 0.0930233 2.45835 0.0930233H8.64585ZM24.9167 5.95349H18.4084V21.5814L21.6625 27.0698L24.9167 21.5814V5.95349ZM8.64585 1.02326H2.45835C1.67919 1.02326 1.08335 1.62791 1.08335 2.4186V4.04651H5.02502C5.30002 4.04651 5.48335 4.23256 5.48335 4.51163C5.48335 4.7907 5.30002 4.97674 5.02502 4.97674H1.08335V8.60465H2.64169C2.91669 8.60465 3.10002 8.7907 3.10002 9.06977C3.10002 9.34884 2.91669 9.53488 2.64169 9.53488H1.08335V13.1628H5.02502C5.30002 13.1628 5.48335 13.3488 5.48335 13.6279C5.48335 13.907 5.30002 14.093 5.02502 14.093H1.08335V17.7209H2.64169C2.91669 17.7209 3.10002 17.907 3.10002 18.186C3.10002 18.4651 2.91669 18.6512 2.64169 18.6512H1.08335V22.2791H5.02502C5.30002 22.2791 5.48335 22.4651 5.48335 22.7442C5.48335 23.0233 5.30002 23.2093 5.02502 23.2093H1.08335V25.5814C1.08335 26.3721 1.67919 26.9767 2.45835 26.9767H8.64585C9.42502 26.9767 10.0209 26.3721 10.0209 25.5814V2.4186C10.0209 1.62791 9.42502 1.02326 8.64585 1.02326ZM22.8542 0.930233H20.5167C19.3709 0.930233 18.4084 1.90698 18.4084 3.06977V5.02326H24.9167V3.06977C24.9167 1.90698 24 0.930233 22.8542 0.930233Z" fill="white"/>
</svg>
