<svg width="26" height="28" viewBox="0 0 26 28" fill="none" xmlns="http://www.w3.org/2000/svg">
<path d="M25.5192 3.73333C25.2823 3.64 19.5946 1.86667 16.0872 3.68667C14.0966 4.71333 12.5798 6.16 11.8215 7.74667C11.5371 6.25333 10.7314 4.71333 9.49904 3.31333C6.9396 0.42 0.96757 0 0.730585 0C0.446202 0 0.256614 0.186667 0.209217 0.42C0.209217 0.653333 -0.312151 6.44 2.29469 9.38C4.14317 11.4333 6.41823 12.6 8.31411 12.6C9.16726 12.6 9.92562 12.3667 10.5418 11.9C9.83082 14.14 8.83548 19.3667 10.447 27.6267C10.4944 27.86 10.684 28 10.921 28C10.9684 28 10.9684 28 11.0157 28C11.2527 27.9533 11.4423 27.72 11.3949 27.44C9.45164 17.64 11.3949 12.2267 11.8215 11.2C12.5325 12.46 14.0492 13.1133 15.8976 13.1133C17.3196 13.1133 18.9311 12.74 20.4952 11.9C24.0025 10.1267 25.7562 4.57333 25.8036 4.34C25.8984 4.06 25.7562 3.82667 25.5192 3.73333ZM3.00564 8.77333C1.06236 6.62667 1.06236 2.38 1.10976 0.98C2.53167 1.12 6.84481 1.77333 8.78808 3.92C10.2574 5.55333 11.0631 7.56 10.9683 9.14667C10.921 9.94 10.5892 10.5933 10.1152 11.0133C8.5037 12.3667 5.3281 11.34 3.00564 8.77333ZM20.0686 11.06C16.9878 12.6467 13.5752 12.46 12.5798 10.64C12.2481 10.08 12.2481 9.38 12.4851 8.58667C12.959 7.04667 14.5231 5.46 16.5138 4.48C17.5091 3.96667 18.7415 3.78 19.9738 3.78C21.9645 3.78 23.9077 4.24667 24.7609 4.48C24.2869 5.83333 22.6754 9.75333 20.0686 11.06Z" fill="white"/>
</svg>
