<svg width="24" height="24" viewBox="0 0 24 24" fill="none" xmlns="http://www.w3.org/2000/svg">
<g clip-path="url(#clip0_1_413)">
<path d="M13.8943 0.000976562C15.5417 0.0042081 16.0121 0.0180576 17.052 0.0774124C18.3697 0.116122 19.2223 0.30967 19.9974 0.619348C20.7725 0.929025 21.4313 1.31612 22.0902 1.97419C22.749 2.63225 23.1753 3.29032 23.4466 4.10322C23.7178 4.91612 23.9504 5.80644 23.9891 7.04515C24.0279 8.36128 23.9504 8.78709 23.9504 12.0774L23.9501 13.7333C23.95 13.8092 23.95 13.8828 23.9499 13.9541L23.9493 14.3562C23.9469 15.6766 23.9388 16.1264 23.9116 16.9935C23.8729 18.3097 23.6403 19.1613 23.3691 19.9355C23.0978 20.7097 22.6715 21.4064 22.0126 22.0645C21.3538 22.7226 20.695 23.1484 19.8811 23.4193C19.0673 23.6903 18.2534 23.9226 16.9358 23.9613C16.5844 23.9716 16.3019 23.9792 16.0141 23.9847L15.7961 23.9885C15.4272 23.9943 15.021 23.9971 14.4325 23.9986L14.0564 23.9993C13.9897 23.9993 13.9208 23.9994 13.8497 23.9995L10.3208 23.9994C8.50276 23.9969 8.06871 23.9845 7.01458 23.9226C5.69692 23.8839 4.84432 23.6516 4.06922 23.3806C3.29413 23.1097 2.59655 22.6839 1.93772 22.0258C1.27889 21.3677 0.852586 20.7097 0.581303 19.8968C0.31002 19.0839 0.0774924 18.271 0.0387377 16.9548C0.0309868 16.6916 0.024786 16.4671 0.0198254 16.25L0.0132759 15.926C0.00694596 15.5636 0.00363028 15.1783 0.0018935 14.6255L0.00102941 14.2725C0.000913147 14.21 0.000809802 14.1454 0.000717939 14.0788L0.000488281 11.38C0.00515033 8.65892 0.0413214 8.27354 0.0774924 7.04515C0.116247 5.72902 0.31002 4.87741 0.620058 4.10322C0.891341 3.29032 1.31764 2.63225 1.97647 1.97419C2.6353 1.31612 3.29413 0.851606 4.10798 0.580638C4.92183 0.30967 5.73568 0.0774124 7.05334 0.0387027C7.9757 0.011606 8.42331 0.00347692 9.73876 0.00103821L13.8943 0.000976562ZM14.0923 2.20718H10.0131C9.15961 2.20837 8.653 2.2115 8.19369 2.21972L7.98397 2.22389C7.74067 2.2292 7.49772 2.23612 7.20835 2.24515C6.00696 2.28386 5.38688 2.51612 4.96058 2.67096C4.41802 2.90322 4.03047 3.13548 3.60417 3.56128C3.21662 3.94838 2.94534 4.37419 2.71281 4.91612C2.55779 5.38064 2.32526 5.99999 2.28651 7.16128C2.27747 7.45032 2.27053 7.69298 2.26522 7.936L2.26105 8.14548C2.25345 8.56896 2.2502 9.0327 2.2488 9.77206L2.24806 10.3819C2.24801 10.4563 2.24797 10.5329 2.24793 10.612L2.24775 16.8C2.28651 18 2.51904 18.6193 2.67406 19.0452C2.94534 19.5871 3.17787 19.9742 3.60417 20.4C3.99172 20.8258 4.41802 21.0968 4.96058 21.329C5.42564 21.4839 6.04571 21.7161 7.20835 21.7548C8.06363 21.7815 8.53182 21.7898 9.78244 21.7924L10.402 21.7932C10.4776 21.7933 10.5555 21.7933 10.6361 21.7933L16.8583 21.7935C18.0597 21.7548 18.6797 21.5226 19.106 21.3677C19.6486 21.0968 20.0362 20.8645 20.4625 20.4387C20.8888 20.0516 21.16 19.6258 21.3926 19.0839C21.5476 18.6193 21.7801 18 21.8189 16.8387C21.8266 16.591 21.8344 16.3773 21.8418 16.1683L21.8491 15.9597C21.8755 15.1926 21.8964 14.3561 21.8964 12L21.8961 10.3819C21.896 10.3076 21.896 10.2356 21.8959 10.1658L21.8953 9.77206C21.8929 8.47819 21.8848 8.02838 21.8576 7.16128C21.8189 5.96128 21.5863 5.34193 21.4313 4.91612C21.16 4.37419 20.9275 3.98709 20.5012 3.56128C20.1137 3.17419 19.6874 2.90322 19.1448 2.67096C18.6797 2.51612 18.0597 2.28386 16.897 2.24515C16.6077 2.23612 16.3647 2.2292 16.1214 2.22389L15.9117 2.21972C15.4524 2.2115 14.9458 2.20837 14.0923 2.20718ZM12.0139 5.84515C15.4631 5.84515 18.2147 8.55483 18.2147 12C18.2147 15.4452 15.3856 18.1548 12.0139 18.1548C8.64228 18.1548 5.85194 15.4452 5.85194 12C5.85194 8.63225 8.56477 5.84515 12.0139 5.84515ZM12.0139 7.97419C9.80492 7.97419 7.98345 9.79354 7.98345 12C7.98345 14.2064 9.76616 16.0258 12.0139 16.0258C14.2617 16.0258 16.0444 14.2452 16.0444 12C16.0444 9.75483 14.2617 7.97419 12.0139 7.97419ZM18.486 4.14193C19.2779 4.14193 19.9199 4.78317 19.9199 5.57419C19.9199 6.3652 19.2779 7.00644 18.486 7.00644C17.694 7.00644 17.052 6.3652 17.052 5.57419C17.052 4.78317 17.694 4.14193 18.486 4.14193Z" fill="white"/>
</g>
<defs>
<clipPath id="clip0_1_413">
<rect width="24" height="24" fill="white"/>
</clipPath>
</defs>
</svg>
