<svg width="24" height="24" viewBox="0 0 24 24" fill="none" xmlns="http://www.w3.org/2000/svg">
<path d="M7.47097 22.1645C16.6065 22.1645 21.5613 14.6161 21.5613 8.07419C21.5613 7.91936 21.5613 7.64839 21.5226 7.41613C22.4903 6.71936 23.3419 5.82903 24 4.86129C23.071 5.2871 22.1419 5.51935 21.1742 5.63548C22.2194 5.01613 22.9935 4.04839 23.3419 2.8871C22.3742 3.42903 21.3677 3.85484 20.1677 4.0871C19.2387 3.11935 18 2.5 16.5677 2.5C13.8194 2.5 11.5742 4.74516 11.5742 7.49355C11.5742 7.88065 11.6129 8.26774 11.6903 8.65484C7.70323 8.38387 4.06452 6.40968 1.5871 3.42903C1.16129 4.20323 0.929032 5.01613 0.929032 5.90645C0.929032 7.64839 1.81935 9.11935 3.17419 10.0097C2.36129 9.97097 1.5871 9.73871 0.929032 9.39032C0.929032 9.42903 0.929032 9.42903 0.929032 9.42903C0.929032 11.7903 2.63226 13.8419 4.87742 14.3065C4.45161 14.4226 3.9871 14.4613 3.63871 14.4613C3.32903 14.4613 2.98065 14.4226 2.70968 14.3452C3.36774 16.3194 5.1871 17.7516 7.35484 17.7903C5.65161 19.1065 3.52258 19.9194 1.23871 19.9194C0.774194 19.9968 0.387097 19.9194 0 19.8806C2.09032 21.3516 4.68387 22.1645 7.47097 22.1645Z" fill="white"/>
</svg>
