<svg width="16" height="14" viewBox="0 0 16 14" fill="none" xmlns="http://www.w3.org/2000/svg">
<path d="M13.587 10.4426C13.9434 10.4426 14.2656 10.1641 14.2656 9.75336C14.2656 9.34958 13.9434 9.07111 13.587 9.07111H5.79949C5.51157 9.07111 5.32648 8.86226 5.28535 8.54898L5.17566 7.83889H13.6624C14.7455 7.83889 15.3213 7.17752 15.479 6.07757L15.9726 2.71507C15.9863 2.6176 16 2.49925 16 2.41571C16 1.9632 15.7052 1.64993 15.1637 1.64993H4.30506L4.20908 0.974639C4.11997 0.3272 3.84576 0 3.03685 0H0.733505C0.335904 0 0 0.341124 0 0.751865C0 1.15564 0.335904 1.49677 0.733505 1.49677H2.76949L3.80463 8.69518C3.9623 9.7812 4.53813 10.4426 5.62125 10.4426H13.587ZM6.19023 14C6.88261 14 7.43788 13.4361 7.43788 12.733C7.43788 12.0298 6.88261 11.4659 6.19023 11.4659C5.49786 11.4659 4.94259 12.0298 4.94259 12.733C4.94259 13.4361 5.49786 14 6.19023 14ZM12.4764 14C13.1688 14 13.7241 13.4361 13.7241 12.733C13.7241 12.0298 13.1688 11.4659 12.4764 11.4659C11.7841 11.4659 11.2219 12.0298 11.2219 12.733C11.2219 13.4361 11.7841 14 12.4764 14Z" fill="white"/>
</svg>
