<svg width="16" height="16" viewBox="0 0 16 16" fill="none" xmlns="http://www.w3.org/2000/svg">
<path d="M13.822 14.3332C15.2461 14.3332 16 13.5793 16 12.156V5.32547C16 3.90218 15.2461 3.14179 13.822 3.14179H12.1788C11.6826 3.14179 11.5087 3.0573 11.1865 2.72585L10.6774 2.19293C10.3359 1.83548 9.98792 1.6665 9.33709 1.6665H6.63713C5.98631 1.6665 5.63834 1.83548 5.29682 2.19293L4.78776 2.72585C4.46557 3.0573 4.29158 3.14179 3.78896 3.14179H2.18445C0.760371 3.14179 0 3.90218 0 5.32547V12.156C0 13.5793 0.760371 14.3332 2.18445 14.3332H13.822ZM8.00322 12.221C6.08941 12.221 4.54934 10.6742 4.54934 8.73098C4.54934 6.79426 6.08941 5.24099 8.00322 5.24099C9.91704 5.24099 11.4507 6.79426 11.4507 8.73098C11.4507 10.6742 9.91704 12.221 8.00322 12.221ZM12.7394 7.2297C12.2561 7.2297 11.8566 6.83975 11.8566 6.34583C11.8566 5.8714 12.2626 5.46195 12.7394 5.46195C13.2098 5.46195 13.6158 5.8714 13.6158 6.34583C13.6158 6.83326 13.2163 7.2232 12.7394 7.2297ZM8.00322 10.9277C9.20822 10.9277 10.1748 9.9528 10.1748 8.73098C10.1748 7.51566 9.20822 6.5343 8.00322 6.5343C6.79823 6.5343 5.83166 7.51566 5.83166 8.73098C5.83166 9.9528 6.80467 10.9277 8.00322 10.9277Z" fill="white"/>
</svg>
