<svg width="26" height="28" viewBox="0 0 26 28" fill="none" xmlns="http://www.w3.org/2000/svg">
<path d="M20.3804 0C20.6154 0 20.8034 0.14 20.8504 0.373333C21.2265 2.66 23.0128 4.43333 25.3163 4.80667C25.5043 4.80667 25.6923 5.04 25.8334 5.27333V9.56667C25.8334 13.58 24.5641 17.5 22.2607 20.8133C20.0043 24.0333 16.8547 26.5067 13.1881 27.9533C13.094 28 13.047 28 13 28C12.906 28 12.859 27.9533 12.812 27.9533C9.14532 26.5067 5.99575 24.0333 3.73934 20.8133C1.38891 17.5 0.166687 13.6267 0.166687 9.56667V5.27333C0.166687 5.04 0.307713 4.85333 0.542755 4.80667C2.79917 4.48 4.6325 2.61333 5.00857 0.373333C5.05558 0.186667 5.24361 0 5.47865 0H20.3804ZM19.9573 0.886667H5.85472C5.33763 3.26667 3.45729 5.08667 1.05985 5.64667V9.52C1.05985 13.3933 2.23506 17.08 4.44446 20.2533C6.55985 23.2867 9.47438 25.5733 12.906 26.9733C16.3376 25.62 19.2522 23.2867 21.3675 20.2533C23.5769 17.08 24.7522 13.3933 24.7522 9.52V5.64667C22.3547 5.08667 20.4744 3.26667 19.9573 0.886667ZM17.0428 9.75333C17.2308 9.56667 17.5598 9.61333 17.6539 9.84667C17.8419 10.0333 17.7949 10.36 17.6069 10.5L11.1667 15.68C11.1197 15.7267 10.9787 15.7733 10.8846 15.7733H10.8376C10.6966 15.7733 10.6026 15.68 10.5086 15.5867L8.06412 12.2267C7.9231 11.9933 7.97011 11.7133 8.15814 11.5733C8.39318 11.4333 8.67523 11.48 8.81626 11.6667L10.9787 14.6067L17.0428 9.75333Z" fill="white"/>
</svg>
