<svg width="28" height="26" viewBox="0 0 28 26" fill="none" xmlns="http://www.w3.org/2000/svg">
<path d="M25.5267 2.98777H9.24C8.49333 1.3229 6.81333 0.166748 4.85333 0.166748C2.14667 0.212994 0 2.34032 0 4.97636V21.0238C0 23.6598 2.14667 25.8334 4.85333 25.8334H4.9H25.5267C26.9267 25.8334 28 24.7235 28 23.3824V5.48507C28 4.09768 26.88 2.98777 25.5267 2.98777ZM0.933333 4.97636C0.933333 2.84903 2.66 1.09167 4.85333 1.09167C7.04667 1.09167 8.77333 2.80278 8.77333 4.97636V18.2028C7.88667 17.0004 6.48667 16.2142 4.85333 16.2142C3.26667 16.2142 1.82 17.0004 0.933333 18.2028V4.97636ZM0.933333 21.07C0.933333 18.9427 2.66 17.1854 4.85333 17.1854C7.04667 17.1854 8.77333 18.8965 8.77333 21.07C8.77333 23.2436 7.04667 24.9547 4.85333 24.9547C2.66 24.9547 0.933333 23.1974 0.933333 21.07ZM27.0667 23.3824C27.0667 24.2148 26.3667 24.9085 25.5267 24.9085H7.7C8.91333 24.0298 9.70667 22.6424 9.70667 21.0238V4.97636C9.70667 4.60639 9.66 4.23642 9.56667 3.91269H25.5267C26.3667 3.91269 27.0667 4.60639 27.0667 5.48507V23.3824Z" fill="white"/>
</svg>
