<svg width="256" height="256" viewBox="0 0 256 256" fill="none" xmlns="http://www.w3.org/2000/svg">
<g clip-path="url(#clip0_1_37)">
<path fill-rule="evenodd" clip-rule="evenodd" d="M81.466 19.5539C127.835 4.32952 214.147 -24.0073 245.683 40.049C253.558 56.063 255.137 76.0439 250.126 96.3369C246.161 112.424 238.304 128.751 225.436 147.721C212.935 166.16 197.534 184.708 176.975 206.103C160.931 222.797 146.76 235.799 129.744 244.926C116.086 252.254 102.025 256 88.7352 256C82.2737 256 76.0141 255.118 70.0666 253.337C52.0772 247.956 35.6115 233.448 24.8729 213.522C15.0338 195.249 10.5181 174.607 7.12218 155.031C1.79879 124.398 -1.23003 89.4134 16.5574 62.1234C32.3624 37.8635 61.1821 26.2019 81.466 19.5539ZM244.031 40.857C213.192 -21.7484 127.871 6.23946 82.035 21.2985C62.0081 27.8731 33.5922 39.3511 18.0994 63.1334C0.64233 89.8909 3.67115 124.435 8.93947 154.718C12.3171 174.148 16.7777 194.607 26.4883 212.641C37.0066 232.144 53.0685 246.34 70.599 251.574C88.0927 256.808 109.331 253.796 128.862 243.31C145.677 234.293 159.738 221.401 175.653 204.817C196.139 183.514 211.467 165.039 223.931 146.693C236.67 127.906 244.435 111.763 248.345 95.8961C253.264 76.0255 251.723 56.4854 244.031 40.857ZM89.7081 47.1377C127.467 33.2907 181.123 19.1866 210.953 56.4854C217.653 64.8414 221.012 74.0788 221.012 84.0325C221.012 88.8624 220.223 93.876 218.644 99.0365C214.018 114.187 204.675 128.438 196.139 140.376C185.914 154.645 174.276 168.621 160.546 183.092C150.468 193.725 139.326 204.56 126.146 211.851C115.793 217.599 104.705 220.593 94.3339 220.593C90.0752 220.593 85.9266 220.097 82.0167 219.068C68.3044 215.487 55.7669 205.221 47.635 190.897C39.9436 177.252 36.6945 161.495 34.5284 147.85C34.2714 146.326 34.0512 144.783 33.8309 143.24C31.3528 125.518 29.5538 99.6242 42.6053 79.5515C51.5082 65.8698 66.4687 55.5672 89.7081 47.1377ZM156.232 34.4293C133.764 34.4293 109.9 41.6834 90.3505 48.864C67.4967 57.1465 52.8115 67.2104 44.1472 80.5432C31.4262 100.12 33.2068 125.555 35.6482 142.983C35.8685 144.526 36.0887 146.05 36.3274 147.575C38.4751 161.036 41.6875 176.609 49.232 189.979C57.1253 203.899 69.2406 213.853 82.4756 217.287C95.472 220.685 111.075 218.132 125.246 210.253C138.206 203.073 149.238 192.348 159.224 181.825C172.9 167.427 184.483 153.506 194.652 139.292C203.096 127.484 212.348 113.398 216.9 98.5039C221.544 83.2979 219.066 69.5427 209.521 57.624C202.619 48.9926 194.377 43.1893 185.309 39.5531C176.259 35.9169 166.383 34.4293 156.232 34.4293ZM97.9318 74.74C121.905 64.07 164.456 57.0547 178.719 72.1873C188.374 81.6818 192.321 88.8624 187.163 101.773C182.757 112.792 174.056 123.829 167.081 132.699L166.824 133.03C159.922 141.79 152.396 151.137 144.117 160.099C137.839 166.876 130.882 173.854 122.548 178.776C115.389 183.055 107.459 185.332 100.024 185.332C97.9685 185.332 95.9493 185.149 93.9851 184.8C84.4765 183.055 75.8856 177.05 70.4154 168.272C64.8901 159.42 62.9626 148.878 61.9163 140.669C61.7878 139.696 61.6777 138.704 61.5676 137.694C59.7686 120.45 62.0999 107.117 68.6715 96.9613C76.161 85.3548 88.9555 78.7251 97.9318 74.74ZM149.917 65.3739C133.011 65.3739 112.801 70.1304 98.6844 76.4111C84.7518 82.6001 75.7204 89.4501 70.2135 97.953C63.8805 107.76 61.641 120.689 63.4032 137.511C63.495 138.484 63.6235 139.476 63.7336 140.449C64.7616 148.456 66.6339 158.759 71.9757 167.298C77.1706 175.636 85.3209 181.347 94.3156 183C102.888 184.561 112.837 182.449 121.612 177.197C129.744 172.385 136.591 165.535 142.777 158.85C151 149.944 158.508 140.633 165.374 131.891L165.631 131.56C172.551 122.782 181.142 111.855 185.456 101.093C189.788 90.2582 187.915 83.8121 177.415 73.4912L177.397 73.4728C171.982 67.7063 161.757 65.3739 149.917 65.3739ZM140.941 89.3399C150.505 88.5502 156.012 90.0378 157.756 93.8577C160.713 100.281 151.747 111.243 141.353 121.837L140.65 122.551C140.533 122.669 140.415 122.788 140.297 122.907L139.589 123.618C138.88 124.328 138.167 125.036 137.453 125.739C134.902 128.255 132.57 131.12 130.331 133.893C126.935 138.062 123.429 142.359 119.023 145.665C114.985 148.695 109.698 150.568 104.687 150.568C100.3 150.568 96.1328 149.136 93.2509 145.738C90.5341 142.561 89.2124 137.97 89.3042 132.075C89.4511 124.729 91.8558 118.577 95.2334 113.563C98.5926 108.549 102.906 104.674 106.835 101.828C116.252 94.9963 129.009 90.3316 140.941 89.3399ZM156.085 94.629C154.745 91.6722 149.569 90.4785 141.088 91.1764C107.11 93.9862 91.4336 116.814 91.1399 132.111C91.0481 137.529 92.2229 141.716 94.646 144.544C100.153 150.99 111.02 149.374 117.922 144.195C122.144 141.037 125.577 136.813 128.899 132.736C131.175 129.926 133.543 127.024 136.168 124.435C138.575 122.069 142.495 118.21 146.254 113.95L146.845 113.274C147.042 113.048 147.238 112.821 147.433 112.593L148.015 111.906C153.417 105.481 157.894 98.5576 156.085 94.629Z" fill="#575445" fill-opacity="0.14"/>
</g>
<defs>
<clipPath id="clip0_1_37">
<rect width="256" height="256" fill="white"/>
</clipPath>
</defs>
</svg>
