<svg width="471" height="424" viewBox="0 0 471 424" fill="none" xmlns="http://www.w3.org/2000/svg">
<path fill-rule="evenodd" clip-rule="evenodd" d="M424.478 113.598C441.547 117.036 457.944 119.592 471 114.678V120.384C455.218 125.298 436.574 121.554 423.269 118.872C294.456 92.952 187.934 95.796 97.5792 127.602C50.6544 144.108 21.8928 167.13 12.0624 196.038C7.64641 209.034 7.24323 223.056 6.85923 236.61C6.01443 266.742 5.11206 297.9 14.5777 327.15C20.0113 343.998 29.208 361.152 42.6864 379.584C50.232 389.898 59.6784 401.292 72.4656 407.574C83.64 413.082 96.5616 414.45 109.925 415.476C126.917 416.772 144.139 417.6 161.17 417.942C170.616 418.122 179.045 418.032 186.61 414.99C196.056 411.156 203.026 402.948 209.17 395.712L284.242 307.26C297.374 291.78 312.274 274.23 331.858 263.088C349.214 253.188 375.672 246.798 397.848 258.498C402.187 260.802 406.104 263.664 409.886 266.436C413.4 269.028 416.722 271.476 420.37 273.492C435.346 281.79 453.048 281.592 471 277.56V282.996C443.525 288.972 428.53 284.274 417.451 278.136C413.458 275.94 409.829 273.276 406.334 270.702C402.552 267.93 398.981 265.302 395.026 263.214C378.533 254.502 354.917 256.266 334.834 267.696C316.152 278.334 302.213 294.75 288.734 310.626L213.682 399.078C207.422 406.44 199.666 415.584 188.894 419.94C181.752 422.82 174.014 423.396 166.027 423.396C164.376 423.396 162.706 423.378 161.035 423.342C143.909 423 126.552 422.154 109.464 420.858C95.4864 419.778 81.9312 418.338 69.7968 412.362C55.8768 405.522 45.8928 393.498 37.944 382.644C24.12 363.744 14.6736 346.104 9.048 328.716C0.640612 302.671 0.184673 275.508 0.774207 248.859L0.858406 245.309C0.873269 244.718 0.888477 244.127 0.903992 243.536L0.999969 239.997C1.03271 238.819 1.066 237.642 1.09923 236.466C1.50243 222.534 1.90558 208.134 6.57118 194.4C16.9584 163.836 46.9104 139.662 95.5632 122.544C186.974 90.36 294.571 87.444 424.478 113.598ZM116.894 147.438C165.394 132.516 255.672 104.742 288.658 167.526C296.894 183.222 298.546 202.806 293.304 222.696C289.157 238.464 280.939 254.466 267.48 273.06C254.405 291.132 238.296 309.312 216.792 330.282C200.011 346.644 185.189 359.388 167.39 368.334C153.106 375.516 138.398 379.188 124.498 379.188C117.739 379.188 111.192 378.324 104.971 376.578C86.1552 371.304 68.9328 357.084 57.7008 337.554C47.4096 319.644 42.6864 299.412 39.1344 280.224C33.5664 250.2 30.3984 215.91 49.0032 189.162C65.5344 165.384 95.6784 153.954 116.894 147.438ZM286.93 168.318C254.674 106.956 165.432 134.388 117.49 149.148C96.5424 155.592 66.8208 166.842 50.616 190.152C32.3568 216.378 35.5248 250.236 41.0352 279.918C44.568 298.962 49.2336 319.014 59.3904 336.69C70.392 355.806 87.1921 369.72 105.528 374.85C123.826 379.98 146.04 377.028 166.469 366.75C184.056 357.912 198.763 345.276 215.41 329.022C236.837 308.142 252.869 290.034 265.906 272.052C279.23 253.638 287.352 237.816 291.442 222.264C296.587 202.788 294.974 183.636 286.93 168.318ZM125.515 174.474C165.01 160.902 221.131 147.078 252.331 183.636C259.339 191.826 262.853 200.88 262.853 210.636C262.853 215.37 262.027 220.284 260.376 225.342C255.538 240.192 245.765 254.16 236.837 265.86C226.142 279.846 213.97 293.544 199.608 307.728C189.067 318.15 177.413 328.77 163.627 335.916C152.798 341.55 141.202 344.484 130.354 344.484C125.899 344.484 121.56 343.998 117.47 342.99C103.128 339.48 90.0144 329.418 81.5088 315.378C73.464 302.004 70.0656 286.56 67.8 273.186C67.5312 271.692 67.3008 270.18 67.0704 268.668C64.4784 251.298 62.5969 225.918 76.2481 206.244C85.5601 192.834 101.208 182.736 125.515 174.474ZM195.096 162.018C171.595 162.018 146.635 169.128 126.187 176.166C102.283 184.284 86.9232 194.148 77.8608 207.216C64.5552 226.404 66.4176 251.334 68.9712 268.416C69.2016 269.928 69.432 271.422 69.6816 272.916C71.928 286.11 75.288 301.374 83.1792 314.478C91.4352 328.122 104.107 337.878 117.95 341.244C131.544 344.574 147.864 342.072 162.686 334.35C176.242 327.312 187.781 316.8 198.226 306.486C212.53 292.374 224.645 278.73 235.282 264.798C244.114 253.224 253.79 239.418 258.552 224.82C263.41 209.916 260.818 196.434 250.834 184.752C243.614 176.292 234.994 170.604 225.509 167.04C216.043 163.476 205.714 162.018 195.096 162.018ZM134.117 201.528C159.192 191.07 203.698 184.194 218.616 199.026C228.715 208.332 232.843 215.37 227.448 228.024C222.84 238.824 213.739 249.642 206.443 258.336L206.174 258.66C198.955 267.246 191.083 276.408 182.424 285.192C175.858 291.834 168.581 298.674 159.864 303.498C152.376 307.692 144.082 309.924 136.306 309.924C134.155 309.924 132.043 309.744 129.989 309.402C120.043 307.692 111.058 301.806 105.336 293.202C99.5568 284.526 97.5408 274.194 96.4464 266.148C96.312 265.194 96.1968 264.222 96.0816 263.232C94.2 246.33 96.6384 233.262 103.512 223.308C111.346 211.932 124.728 205.434 134.117 201.528ZM188.491 192.348C170.808 192.348 149.669 197.01 134.904 203.166C120.331 209.232 110.885 215.946 105.125 224.28C98.5008 233.892 96.1584 246.564 98.0016 263.052C98.0976 264.006 98.232 264.978 98.3472 265.932C99.4224 273.78 101.381 283.878 106.968 292.248C112.402 300.42 120.926 306.018 130.334 307.638C139.301 309.168 149.707 307.098 158.885 301.95C167.39 297.234 174.552 290.52 181.022 283.968C189.624 275.238 197.477 266.112 204.658 257.544L204.926 257.22C212.165 248.616 221.15 237.906 225.662 227.358C230.194 216.738 228.235 210.42 217.253 200.304L217.234 200.286C211.57 194.634 200.875 192.348 188.491 192.348ZM179.102 215.838C189.106 215.064 194.866 216.522 196.69 220.266C199.905 226.812 189.639 238.167 178.23 248.926L177.123 249.965C176.938 250.138 176.753 250.31 176.568 250.483L175.454 251.514C172.786 253.98 170.347 256.788 168.005 259.506C164.453 263.592 160.786 267.804 156.178 271.044C151.954 274.014 146.424 275.85 141.182 275.85C136.594 275.85 132.235 274.446 129.221 271.116C126.379 268.002 124.997 263.502 125.093 257.724C125.246 250.524 127.762 244.494 131.294 239.58C134.808 234.666 139.32 230.868 143.429 228.078C153.278 221.382 166.622 216.81 179.102 215.838ZM194.942 221.022C193.541 218.124 188.126 216.954 179.256 217.638C143.717 220.392 127.32 242.766 127.013 257.76C126.917 263.07 128.146 267.174 130.68 269.946C136.44 276.264 147.806 274.68 155.026 269.604C159.442 266.508 163.032 262.368 166.507 258.372C168.888 255.618 171.365 252.774 174.11 250.236C174.713 249.681 175.405 249.043 176.165 248.335L176.946 247.605C184.69 240.336 197.912 227.065 194.942 221.022ZM351.691 134.118C365.669 134.388 379.723 136.224 393.317 138.024C401.477 139.086 409.925 140.202 418.238 140.94C439.339 142.848 456.485 141.894 471 137.898V139.77C456.35 143.712 439.166 144.648 418.066 142.74C409.694 141.984 401.227 140.868 393.048 139.806C379.512 138.024 365.515 136.188 351.653 135.918C345.355 135.81 338.29 136.26 334.066 140.562C328.766 145.908 330.744 154.368 331.838 157.752C332.568 160.038 333.528 162.306 334.469 164.52C336.024 168.174 337.618 171.954 338.27 175.95C339.019 180.54 338.482 185.202 337.963 189.702C337.714 191.844 337.464 194.076 337.349 196.254C337.118 200.898 337.637 209.376 343.742 213.876C349.195 217.872 356.299 217.188 363.845 216.45C367.954 216.054 372.216 215.622 376.267 216.018C386.117 216.972 394.238 222.66 402.091 228.15C404.664 229.932 407.314 231.804 409.963 233.442C427.742 244.44 450.36 247.788 471 243.27V245.124C465.048 246.384 458.962 247.014 452.856 247.014C437.362 247.014 421.886 242.964 408.907 234.936C406.219 233.262 403.531 231.408 400.958 229.59L399.472 228.554C392.271 223.55 384.786 218.66 376.075 217.818C372.216 217.44 368.069 217.854 364.037 218.232C356.453 218.988 348.619 219.744 342.552 215.28C335.774 210.294 335.179 201.168 335.429 196.164C335.544 193.932 335.813 191.682 336.062 189.504C336.562 185.112 337.099 180.576 336.37 176.22C335.755 172.422 334.2 168.75 332.683 165.186C331.742 162.936 330.763 160.632 329.995 158.274C328.805 154.584 326.693 145.386 332.645 139.338C337.406 134.532 344.933 134.01 351.691 134.118ZM471 161.334V163.206C448.862 169.002 425.035 167.184 403.704 165.546C394.987 164.88 382.853 164.88 378.226 172.584C374.75 178.398 377.765 185.994 382.373 190.188C387.422 194.796 394.546 197.064 401.496 198.846C425.765 205.038 449.4 206.532 471 203.364V205.182C463.666 206.262 456.139 206.784 448.421 206.784C433.157 206.784 417.202 204.714 400.997 200.574C393.797 198.738 386.405 196.38 381.029 191.484C375.787 186.696 372.562 178.362 376.555 171.702C381.72 163.098 394.603 163.044 403.858 163.764C425.208 165.402 449.054 167.22 471 161.334ZM114.706 0C113.803 19.098 110.251 37.944 104.107 56.304C101.63 63.666 99.4416 71.946 104.549 77.022C108.619 81.054 115.512 80.982 121.042 80.478C133.138 79.362 145.214 76.662 156.869 74.07C161.803 72.972 166.91 71.82 171.96 70.812C235.403 58.1768 299.922 63.5919 365.783 72.4121L370.605 73.0633C373.821 73.5013 377.04 73.9464 380.263 74.3972L385.099 75.0772C385.905 75.1912 386.712 75.3055 387.518 75.42C413.112 79.056 443.141 83.322 471 78.84V80.676C462.475 82.044 453.739 82.584 445.003 82.584C425.054 82.584 405.086 79.74 387.23 77.202C382.401 76.516 377.579 75.8397 372.764 75.1787L367.952 74.523C301.415 65.5292 236.282 59.836 172.363 72.576C167.333 73.584 162.245 74.718 157.31 75.816C145.579 78.426 133.464 81.126 121.234 82.26C115.723 82.764 107.851 82.908 103.147 78.246C97.3296 72.468 99.6528 63.612 102.283 55.764C108.35 37.602 111.864 18.9 112.766 0H114.706ZM151.858 0C152.28 10.44 149.957 20.97 145.08 30.348L144.792 30.906C143.87 32.652 142.93 34.452 142.872 36.288C142.718 40.338 146.904 43.56 151.051 44.334C155.41 45.162 160.018 44.064 164.453 43.002L164.664 42.948C210.667 31.95 258.014 27.648 305.419 30.186C319.589 30.942 333.95 32.328 347.832 33.678C366.283 35.46 385.368 37.314 404.203 37.674C429.682 38.196 451.781 35.802 471 30.42V32.292C451.723 37.62 429.605 39.996 404.165 39.474C385.253 39.096 366.13 37.26 347.64 35.46C333.778 34.128 319.435 32.724 305.304 31.968C258.11 29.466 210.955 33.732 165.144 44.694L164.933 44.748C161.458 45.576 157.886 46.422 154.296 46.422C153.086 46.422 151.877 46.332 150.667 46.098C145.752 45.18 140.76 41.238 140.952 36.216C141.029 34.002 142.066 32.022 143.064 30.114L143.371 29.556C148.114 20.412 150.379 10.152 149.957 0H151.858Z" fill="#575445" fill-opacity="0.09"/>
</svg>
