<svg width="555" height="435" viewBox="0 0 555 435" fill="none" xmlns="http://www.w3.org/2000/svg">
<path fill-rule="evenodd" clip-rule="evenodd" d="M338.918 36.174C364.742 42.348 393.562 58.1701 396.998 84.0721C398.726 97.1581 393.562 109.776 389.011 120.918L361.459 188.31C352.032 211.368 341.357 237.486 345.869 263.442C350.784 291.648 374.976 315.768 404.678 322.104C413.53 323.994 423.072 324.48 432.307 324.966C448.896 325.812 466.042 326.694 480.192 335.604C502.406 349.59 506.726 376.734 507.322 391.674C508.032 409.98 504.307 423.804 495.898 433.956C495.61 434.298 495.322 434.658 494.995 435H487.392C488.813 433.524 490.138 432.084 491.347 430.644C498.893 421.536 502.234 408.846 501.562 391.872C501.005 377.958 497.088 352.74 476.986 340.086C464.73 332.363 449.915 331.297 434.182 330.463L431.981 330.348C422.515 329.862 412.723 329.358 403.411 327.378C371.462 320.556 345.466 294.636 340.186 264.306C335.424 236.928 346.867 208.902 356.083 186.366L383.635 118.992C387.936 108.444 392.832 96.492 391.277 84.738C388.205 61.536 361.478 47.136 337.498 41.412C278.112 27.21 215.482 41.358 156.422 57.072C126.835 64.938 100.397 72.552 76.5504 86.25C70.6368 89.634 64.8 93.468 59.1552 97.176C47.9424 104.556 36.3456 112.17 23.2512 116.958C16.224 119.532 8.1408 121.134 0 121.296V115.914C7.3728 115.752 14.7648 114.276 21.1584 111.936C33.6 107.382 44.9088 99.948 55.8528 92.766C61.5744 89.004 67.4688 85.116 73.536 81.642C97.9968 67.62 125.952 59.556 154.848 51.87C214.656 35.958 278.15 21.648 338.918 36.174ZM361.306 10.866C387.994 17.76 406.368 27.03 419.117 40.062C429.427 50.592 451.814 81.282 436.838 138.378C432.499 154.866 426.01 170.994 419.712 186.618C413.242 202.638 406.56 219.216 402.278 236.118C400.109 244.632 398.458 254.442 402.47 262.704C405.12 268.122 410.15 272.856 417.869 277.194C431.827 285.042 448.224 288.624 464.064 292.08L466.923 292.706C483.15 296.271 499.734 300.209 513.715 308.964C535.027 322.302 549.485 346.836 553.363 376.266C555.955 395.904 554.035 415.632 551.002 435H549.062C552.096 415.668 554.035 395.994 551.462 376.482C547.642 347.574 533.491 323.508 512.64 310.458C499.352 302.142 483.499 298.227 467.89 294.777L465.056 294.153C464.584 294.05 464.112 293.947 463.642 293.844C447.648 290.352 431.098 286.734 416.89 278.742C408.826 274.206 403.526 269.202 400.723 263.46C396.461 254.694 398.17 244.506 400.416 235.704C404.736 218.694 411.437 202.062 417.907 185.97C424.186 170.418 430.675 154.326 434.957 137.946C449.722 81.696 427.795 51.6 417.696 41.2681C405.216 28.5061 387.13 19.398 360.787 12.612C284.544 -7.07997 197.203 1.16402 85.9392 38.532L79.2 40.8181C53.6448 49.458 27.2256 58.386 0 58.35V56.55C23.5704 56.5973 46.5822 49.7953 68.9839 42.3421L72.18 41.2735C74.308 40.5592 76.4304 39.8415 78.5472 39.126L85.3056 36.84C196.954 -0.653988 284.659 -8.91597 361.306 10.866ZM298.176 72.57C324.691 76.566 340.109 93.126 343.642 107.778C347.03 121.82 341.721 135.799 336.055 149.372L335.314 151.14C335.191 151.434 335.067 151.728 334.944 152.022L334.003 154.272C314.554 200.82 308.736 240.33 316.224 275.034C327.187 325.812 365.798 354.954 399.206 361.326C402.355 361.938 405.638 362.388 408.826 362.82C416.41 363.882 424.243 364.98 431.309 368.148C447.533 375.474 457.709 393.996 456.038 413.202C455.405 420.42 453.254 427.728 449.683 435H447.571C450.95 428.322 453.427 420.942 454.118 413.058C455.731 394.572 446.016 376.77 430.464 369.768C423.686 366.708 415.987 365.646 408.538 364.602C405.331 364.17 402.029 363.702 398.822 363.09C378.067 359.13 358.944 348.186 343.488 331.428C329.146 315.858 318.797 295.968 314.342 275.394C306.778 240.33 312.614 200.496 332.218 153.606L333.158 151.356C339.11 137.208 345.235 122.592 341.779 108.174C338.381 94.116 323.501 78.204 297.869 74.334C283.699 72.21 269.184 74.64 255.149 77.016C250.387 77.808 245.491 78.636 240.672 79.266C220.224 81.966 199.776 86.178 179.885 91.83C139.757 103.224 102.125 120.198 68.0064 142.284C66.2784 143.382 64.5696 144.516 62.8416 145.65C50.9952 153.444 38.7264 161.49 24.576 165C16.5504 166.998 8.3712 167.43 0 167.592V165.792C8.2176 165.63 16.2624 165.198 24.096 163.272C37.92 159.834 50.0352 151.878 61.7472 144.174C63.4752 143.04 65.184 141.906 66.912 140.79C101.203 118.614 139.008 101.568 179.328 90.12C199.315 84.432 219.859 80.184 240.403 77.484C245.184 76.854 250.08 76.044 254.803 75.234C268.992 72.84 283.68 70.374 298.176 72.57ZM275.405 280.794C279.475 287.778 279.706 295.842 279.936 303.654C280.07 308.748 280.224 314.004 281.434 318.9C284.813 332.562 296.006 344.334 316.704 355.98C329.894 363.414 343.891 369.714 358.33 374.754L362.131 376.05C378.106 381.54 396.23 387.768 403.488 402.528C407.77 411.276 407.405 422.4 402.509 432.282C402.048 433.2 401.568 434.1 401.03 435H398.822C399.552 433.848 400.186 432.696 400.762 431.526C405.427 422.112 405.792 411.546 401.741 403.284C395.532 390.623 381.22 384.644 366.473 379.475L364.802 378.893C363.688 378.507 362.572 378.124 361.459 377.742L357.658 376.428C343.123 371.37 329.011 365.016 315.706 357.528C294.547 345.612 283.066 333.462 279.571 319.314C278.304 314.238 278.15 308.874 278.016 303.708C277.786 295.752 277.574 288.246 273.715 281.64C265.92 268.23 246.144 265.35 231.494 269.454C218.842 272.982 207.84 280.542 197.203 287.85C194.746 289.524 192.288 291.216 189.811 292.836C161.856 311.34 128.371 325.83 84.4224 338.412C58.752 345.774 29.4144 352.524 0 350.4V348.582C29.1456 350.724 58.3104 343.992 83.8464 336.684C127.603 324.156 160.915 309.756 188.717 291.378C191.174 289.74 193.613 288.066 196.07 286.392C206.842 278.994 217.978 271.344 230.938 267.726C246.317 263.424 267.11 266.538 275.405 280.794ZM245.414 332.04C248.563 336.522 249.946 341.778 251.29 346.872C251.693 348.42 252.096 349.95 252.538 351.462C258.566 371.73 274.138 387.822 293.184 393.492C297.85 394.878 302.784 395.688 307.546 396.462C311.213 397.056 315.014 397.668 318.701 398.55C329.165 401.052 336.787 405.66 340.723 411.888C345.427 419.34 344.525 427.692 341.779 435H339.763C342.528 427.962 343.565 419.898 339.072 412.806C334.426 405.462 325.171 401.952 318.221 400.296C314.611 399.432 310.848 398.82 307.219 398.226C302.381 397.452 297.389 396.642 292.608 395.22C272.947 389.37 256.877 372.792 250.694 351.948C250.234 350.418 249.83 348.87 249.427 347.304C248.122 342.372 246.778 337.242 243.821 333.03C236.736 322.986 222.067 320.412 210.682 322.338C199.507 324.228 189.254 329.628 179.366 334.866L176.122 336.558C134.304 358.446 71.5008 382.62 0 381.162V379.38C71.0976 380.838 133.574 356.772 175.2 334.992L178.406 333.282C188.448 327.99 198.835 322.5 210.336 320.574C222.355 318.54 237.85 321.312 245.414 332.04ZM208.378 375.924C213.006 379.471 215.586 384.532 217.936 389.579L218.573 390.954C220.243 394.572 221.971 398.298 224.371 401.466C229.978 408.828 239.117 413.04 247.93 417.108C249.274 417.72 250.598 418.332 251.904 418.962C256.032 420.906 260.678 423.336 263.309 427.386C264.864 429.762 265.574 432.462 265.978 435H264.038C263.654 432.732 263.002 430.356 261.677 428.322C259.296 424.686 254.938 422.4 251.04 420.564C249.734 419.952 248.41 419.34 247.085 418.728L245.332 417.917C236.85 413.983 228.312 409.751 222.816 402.51C220.282 399.18 218.515 395.364 216.806 391.656C214.253 386.13 211.853 380.91 207.168 377.328C201.677 373.134 193.152 371.802 184.378 373.782C177.619 375.294 171.283 378.408 165.158 381.414C164.064 381.954 162.989 382.476 161.914 382.998C111.072 407.478 53.3184 414.372 0 418.656V416.856C53.1072 412.572 110.554 405.696 161.03 381.396C162.106 380.874 163.181 380.352 164.256 379.812C170.496 376.77 176.947 373.602 183.936 372.036C193.421 369.894 202.33 371.316 208.378 375.924ZM182.458 428.178C185.453 429.996 188.237 432.174 190.944 434.262L191.885 435H188.87C186.49 433.128 184.013 431.274 181.421 429.69C168.307 421.77 150.47 420.366 128.371 425.532C121.824 427.062 115.258 429.024 108.902 430.914C104.198 432.3 99.3984 433.74 94.56 435H86.9952C94.2336 433.398 101.357 431.274 108.326 429.204C114.701 427.296 121.306 425.334 127.91 423.786C150.528 418.494 168.883 419.97 182.458 428.178ZM133.69 152.058C172.109 136.92 252.058 105.438 281.549 120.63C287.674 123.78 291.398 128.802 292.608 135.552C297.595 163.184 267.123 196.354 250.189 212.335L249.03 213.422C246.759 215.539 244.773 217.311 243.206 218.676C216.902 241.59 185.376 258.798 152.659 275.844C113.107 296.472 68.2752 319.836 19.4496 321.384C18.0288 321.438 16.608 321.456 15.2256 321.456C9.7344 321.456 4.6656 321.096 0 320.358V318.54C5.7984 319.476 12.2496 319.818 19.392 319.584C67.7568 318.054 112.378 294.798 151.738 274.278C184.339 257.286 215.75 240.15 241.901 217.362C254.784 206.13 296.352 167.106 290.707 135.858C289.594 129.684 286.195 125.094 280.627 122.214C251.962 107.436 172.57 138.702 134.438 153.714C126.336 156.9 119.962 159.42 116.198 160.662C77.6064 173.352 34.2336 187.608 0 213.132V210.828C34.2912 185.682 77.2608 171.534 115.565 158.952C119.27 157.746 125.626 155.226 133.69 152.058ZM89.3184 199.308C99.8208 195.744 116.064 195.114 126.95 202.17C133.613 206.49 137.203 213.096 137.299 221.268C137.434 231.258 131.194 241.158 118.234 251.508C100.339 265.818 79.008 276.852 54.7968 284.34C41.7216 288.39 30.4512 290.37 20.3136 290.37C15.6864 290.37 11.2704 289.956 7.0464 289.128C4.9152 288.732 2.208 288.048 0 286.626V284.304C2.016 286.14 5.1072 286.914 7.4304 287.382C20.6208 289.92 35.4816 288.408 54.2016 282.63C78.1632 275.214 99.2832 264.288 116.986 250.14C129.485 240.15 135.494 230.718 135.379 221.286C135.283 213.618 132.077 207.678 125.856 203.646C117.005 197.904 102.259 196.824 89.9904 201L84.96 202.71C63.1296 210.108 40.5504 217.74 22.6944 232.05C11.5392 240.996 3.6864 251.85 0 263.1V257.772C4.2624 247.926 11.5968 238.566 21.4464 230.682C30.5088 223.428 40.7232 217.866 51.4176 213.204C62.1312 208.524 73.3056 204.744 84.3072 201.018L89.3184 199.308ZM224.947 153.12C235.853 152.544 243.974 155.532 247.238 161.274C250.406 166.818 248.698 174.198 242.419 182.046C230.419 197.076 210.413 206.364 190.598 206.364C189.312 206.364 188.006 206.328 186.72 206.238C184.474 206.094 182.112 205.842 179.962 204.852C174.182 202.188 172.493 195.492 172.781 190.578C173.357 181.002 179.923 171.336 190.31 164.73C195.59 161.382 201.466 158.628 207.418 156.63C213.35 154.632 219.379 153.408 224.947 153.12ZM227.52 154.848C226.714 154.848 225.888 154.884 225.043 154.92C214.253 155.478 201.677 159.69 191.405 166.224C186.451 169.356 182.419 173.226 179.539 177.42C176.678 181.632 174.989 186.168 174.701 190.686C174.432 195.042 175.872 200.964 180.806 203.232C182.65 204.078 184.8 204.312 186.854 204.438C207.264 205.716 228.48 196.5 240.883 180.966C246.682 173.712 248.352 167.016 245.549 162.12C242.88 157.44 236.39 154.848 227.52 154.848Z" fill="#575445" fill-opacity="0.09"/>
</svg>
