<svg width="1440" height="393" viewBox="0 0 1440 393" fill="none" xmlns="http://www.w3.org/2000/svg">
<path fill-rule="evenodd" clip-rule="evenodd" d="M182.458 390.021C185.453 390.815 188.237 391.766 190.944 392.678L191.885 393H188.87C186.49 392.183 184.013 391.373 181.421 390.681C168.307 387.223 150.47 386.61 128.371 388.866C121.824 389.534 115.258 390.39 108.902 391.216C104.198 391.821 99.3984 392.45 94.56 393H86.9952C94.2336 392.3 101.357 391.373 108.326 390.469C114.701 389.636 121.306 388.779 127.91 388.103C150.528 385.792 168.883 386.437 182.458 390.021ZM245.414 348.041C248.563 349.998 249.946 352.293 251.29 354.517C251.693 355.193 252.096 355.861 252.538 356.522C258.566 365.372 274.138 372.399 293.184 374.875C297.85 375.48 302.784 375.834 307.546 376.172C311.213 376.431 315.014 376.698 318.701 377.083C329.165 378.176 336.787 380.188 340.723 382.908C345.427 386.162 344.525 389.809 341.779 393H339.763C342.528 389.927 343.565 386.405 339.072 383.309C334.426 380.102 325.171 378.569 318.221 377.846C314.611 377.469 310.848 377.201 307.219 376.942C302.381 376.604 297.389 376.25 292.608 375.629C272.947 373.075 256.877 365.836 250.694 356.734C250.234 356.066 249.83 355.39 249.427 354.706C248.122 352.552 246.778 350.312 243.821 348.473C236.736 344.087 222.067 342.963 210.682 343.804C200.335 344.568 190.778 346.647 181.57 348.766L179.366 349.275L176.122 350.014C134.304 359.571 71.5008 370.127 0 369.491V368.713C71.0976 369.349 133.574 358.84 175.2 349.33L178.406 348.583C188.448 346.272 198.835 343.875 210.336 343.034C222.355 342.146 237.85 343.356 245.414 348.041ZM338.918 218.846C364.742 221.542 393.562 228.451 396.998 239.761C398.726 245.476 393.562 250.986 389.011 255.851L361.459 285.279C352.032 295.347 341.357 306.752 345.869 318.086C350.784 330.403 374.976 340.935 404.678 343.702C413.53 344.527 423.072 344.74 432.307 344.952C448.896 345.321 466.042 345.706 480.192 349.597C502.406 355.704 506.726 367.557 507.322 374.081C508.032 382.075 504.307 388.111 495.898 392.544C495.61 392.693 495.322 392.851 494.995 393H487.392C488.813 392.355 490.138 391.727 491.347 391.098C498.893 387.121 502.234 381.579 501.562 374.167C501.005 368.092 497.088 357.08 476.986 351.554C464.16 348.025 448.531 347.679 431.981 347.302C422.515 347.09 412.723 346.87 403.411 346.005C371.462 343.026 345.466 331.708 340.186 318.464C335.424 306.509 346.867 294.271 356.083 284.43L383.635 255.01C387.936 250.404 392.832 245.185 391.277 240.052C388.205 229.921 361.478 223.633 337.498 221.133C283.457 215.49 226.729 220.098 172.45 226.144L168.875 226.545L165.307 226.949C164.713 227.016 164.12 227.084 163.526 227.152L159.97 227.561C158.786 227.697 157.604 227.834 156.422 227.971C126.835 231.406 100.397 234.731 76.5504 240.713C70.6368 242.19 64.8 243.864 59.1552 245.484C47.9424 248.706 36.3456 252.031 23.2512 254.122C16.224 255.246 8.1408 255.945 0 256.016V253.666C7.3728 253.595 14.7648 252.951 21.1584 251.929C33.6 249.94 44.9088 246.694 55.8528 243.558C61.5744 241.915 67.4688 240.217 73.536 238.7C97.9968 232.577 125.952 229.056 154.848 225.7C159.035 225.214 163.239 224.731 167.46 224.255L171.081 223.85C226.063 217.729 283.62 213.074 338.918 218.846ZM896.544 324.532C905.299 326.143 911.808 330.104 913.498 334.875C914.799 338.548 913.498 342.257 911.924 345.88L911.489 346.866C911.416 347.03 911.343 347.194 911.27 347.357L911.194 347.522C904.57 362.299 899.021 378.954 913.248 393H911.194C897.139 378.821 902.688 362.173 909.293 347.381L909.37 347.216C911.174 343.191 913.037 339.033 911.597 334.993C910.349 331.456 905.53 327.039 895.757 325.255C882.95 322.905 868.339 325.915 855.456 328.579L854.093 328.862C803.002 339.379 743.174 341.941 690.374 344.205C668.736 345.133 644.659 346.728 632.832 353.959C625.443 358.471 624.656 364.143 624.334 369.735L624.29 370.552C624.283 370.689 624.276 370.825 624.269 370.961L624.23 371.943C623.827 378.97 622.483 386.02 620.179 393H618.24C620.544 386.012 621.907 378.954 622.31 371.927L622.349 370.945C622.371 370.539 622.392 370.132 622.416 369.724L622.468 368.909C622.842 363.47 623.9 357.998 631.238 353.519C643.526 346.005 668.102 344.37 690.182 343.427C742.81 341.171 802.464 338.617 853.229 328.155L854.592 327.872C867.859 325.137 882.893 322.032 896.544 324.532ZM864.499 353.967C867.014 355.594 867.302 357.599 867.264 359.155C867.187 362.653 865.018 366.119 862.714 369.789L862.304 370.443C857.877 377.525 853.774 384.841 865.248 393H863.04C852.218 385.011 855.747 377.847 860.019 370.929L860.434 370.26C860.573 370.038 860.712 369.815 860.851 369.593C863.117 365.969 865.267 362.55 865.344 359.147C865.382 357.693 865.133 355.846 862.886 354.384C858.49 351.538 848.698 350.941 832.934 352.545C794.746 356.435 755.443 358.691 716.102 359.241C699.533 359.469 680.755 359.736 669.523 364.673C659.309 369.161 658.886 376.195 659.674 381.831L659.885 383.309C660.365 386.539 660.864 389.832 660.038 393H658.08C658.925 389.864 658.445 386.578 657.965 383.356L657.754 381.878C656.947 376.085 657.408 368.838 668.122 364.13C679.91 358.958 699.091 358.691 716.045 358.455C755.232 357.905 794.419 355.665 832.474 351.782C838.598 351.153 857.242 349.259 864.499 353.967ZM361.306 207.795C387.994 210.805 406.368 214.853 419.117 220.544C429.427 225.142 451.814 238.543 436.838 263.475C432.499 270.675 426.01 277.717 419.712 284.54C413.242 291.535 406.56 298.774 402.278 306.155C400.109 309.873 398.458 314.156 402.47 317.764C405.12 320.13 410.15 322.197 417.869 324.091C430.927 327.297 446.118 328.873 460.992 330.298L464.064 330.592C481.19 332.226 498.912 333.916 513.715 337.964C535.027 343.789 549.485 354.502 553.363 367.353C555.955 375.928 554.035 384.543 551.002 393H549.062C552.096 384.558 554.035 375.967 551.462 367.447C547.642 354.824 533.491 344.315 512.64 338.617C498.144 334.655 480.595 332.981 463.642 331.362C447.648 329.837 431.098 328.257 416.89 324.767C408.826 322.787 403.526 320.602 400.723 318.094C396.461 314.266 398.17 309.818 400.416 305.974C404.736 298.546 411.437 291.284 417.907 284.257C424.186 277.466 430.675 270.439 434.957 263.286C449.722 238.724 427.795 225.582 417.696 221.07C405.216 215.498 387.13 211.52 360.787 208.557C284.544 199.958 197.203 203.558 85.9392 219.876L79.2 220.874L77.6017 221.11L74.3983 221.582C50.3392 225.119 25.524 228.544 0 228.53V227.743C25.8152 227.766 50.9603 224.201 75.3678 220.604L78.5472 220.135L85.3056 219.137C196.954 202.764 284.659 199.157 361.306 207.795ZM1372.74 139.177C1381.82 139.743 1389.83 141.653 1397.57 143.5C1401.98 144.553 1406.53 145.638 1411.24 146.463C1420.22 148.035 1430.21 148.648 1440 148.326V149.112C1429.94 149.434 1419.71 148.806 1410.49 147.186C1405.67 146.345 1401.06 145.245 1396.61 144.176C1388.68 142.282 1381.17 140.497 1372.45 139.955C1350.53 138.588 1331.46 145.614 1317.29 151.887C1295.75 161.358 1275.53 171.662 1257.24 182.517C1248.69 187.579 1239.28 193.529 1235.54 200.108C1234.64 201.695 1233.98 203.433 1233.5 205.563C1233.2 206.914 1232.99 208.298 1232.77 209.642C1232.52 211.238 1232.28 212.888 1231.85 214.507C1227.28 232.318 1201.42 249.744 1162.66 261.125C1158.82 262.249 1154.84 263.318 1150.85 264.3C1148.87 264.78 1146.85 265.259 1144.82 265.747C1144.3 265.871 1143.77 265.995 1143.25 266.119L1141.67 266.493L1140.1 266.87L1138.53 267.251C1127.32 269.994 1116.76 273.084 1112.1 277.961C1106.65 283.644 1111.16 289.397 1115.96 295.489C1118.73 299.018 1121.61 302.673 1122.39 306.336C1123.2 310.101 1121.78 313.905 1120.11 317.458C1119.72 318.267 1119.32 319.085 1118.92 319.894C1117.96 321.859 1116.96 323.887 1116.25 325.883C1114.64 330.411 1114.5 335.103 1115.87 339.851C1120.4 355.571 1140.88 370.135 1170.68 378.813C1187.96 383.867 1206.87 388.536 1228.15 393H1223.96C1203.94 388.732 1186.02 384.268 1169.57 379.457C1139.33 370.654 1118.55 355.877 1113.96 339.937C1112.58 335.127 1112.72 330.364 1114.35 325.773C1115.06 323.753 1116.06 321.718 1117.04 319.737C1117.44 318.927 1117.84 318.118 1118.23 317.308C1120.13 313.268 1121.22 309.865 1120.47 306.406C1119.71 302.83 1116.86 299.214 1114.14 295.725C1109.45 289.775 1104.61 283.612 1110.3 277.67C1115.76 271.982 1128.61 268.688 1141.49 265.624L1143.07 265.249C1143.33 265.187 1143.6 265.125 1143.86 265.063C1145.88 264.583 1147.89 264.104 1149.87 263.624C1153.82 262.658 1157.74 261.597 1161.54 260.488C1199.85 249.233 1225.42 232.019 1229.95 214.429C1230.36 212.825 1230.62 211.182 1230.85 209.587C1231.07 208.243 1231.28 206.852 1231.6 205.484C1232.08 203.322 1232.76 201.554 1233.68 199.927C1237.48 193.222 1247.02 187.194 1255.66 182.069C1274.02 171.183 1294.27 160.855 1315.89 151.352C1330.37 144.938 1349.95 137.754 1372.74 139.177ZM275.405 325.663C279.475 328.713 279.706 332.234 279.936 335.646C280.07 337.87 280.224 340.165 281.434 342.303C284.813 348.269 296.006 353.409 316.704 358.495C329.894 361.741 343.891 364.492 358.33 366.693L362.131 367.259C378.106 369.656 396.23 372.375 403.488 378.821C407.77 382.641 407.405 387.498 402.509 391.813C402.048 392.214 401.568 392.607 401.03 393H398.822C399.552 392.497 400.186 391.994 400.762 391.483C405.427 387.372 405.792 382.758 401.741 379.151C394.829 372.996 377.875 370.458 361.459 367.997L357.658 367.424C343.123 365.215 329.011 362.44 315.706 359.171C294.547 353.967 283.066 348.662 279.571 342.484C278.304 340.267 278.15 337.925 278.016 335.669C277.786 332.195 277.574 328.917 273.715 326.033C265.92 320.177 246.144 318.919 231.494 320.712C218.842 322.252 207.84 325.553 197.203 328.745C194.746 329.475 192.288 330.214 189.811 330.922C161.856 339.002 128.371 345.329 84.4224 350.823C58.752 354.038 29.4144 356.985 0 356.058V355.264C29.1456 356.199 58.3104 353.26 83.8464 350.069C127.603 344.598 160.915 338.31 188.717 330.285C191.174 329.57 193.613 328.839 196.07 328.108C206.842 324.877 217.978 321.537 230.938 319.957C246.317 318.078 267.11 319.438 275.405 325.663ZM819.456 372.886C821.146 373.594 821.568 374.6 821.76 375.401C822.528 378.718 820.55 382.09 818.65 385.36C817.094 388.001 815.616 390.548 815.52 393H813.619C813.715 390.414 815.27 387.765 816.787 385.171C818.65 381.972 820.589 378.656 819.859 375.48C819.686 374.804 819.36 373.963 818.093 373.436C816 372.556 812.314 372.784 809.05 373.059C792.979 374.435 776.544 375.118 760.109 375.063C757.786 375.056 755.443 375.04 753.082 375.016C740.506 374.914 727.507 374.804 716.045 376.808C709.382 377.972 704.736 379.732 702.97 381.752C701.894 382.994 701.818 384.362 701.741 385.682L701.318 393H699.398L699.821 385.667C699.898 384.346 699.974 382.853 701.165 381.493C703.123 379.261 708.134 377.343 715.277 376.085C726.423 374.143 738.756 374.123 750.794 374.212L753.12 374.23C755.462 374.254 757.805 374.27 760.128 374.277C776.41 374.317 792.73 373.649 808.646 372.297C811.373 372.061 816.461 371.629 819.456 372.886ZM1388.43 153.875C1396.19 154.315 1403.06 155.832 1409.72 157.302C1413.52 158.135 1417.46 159.008 1421.49 159.652C1427.4 160.603 1433.68 161.106 1440 161.161V161.947C1433.45 161.892 1426.91 161.374 1420.78 160.383C1416.63 159.715 1412.66 158.843 1408.82 157.994C1402 156.493 1395.57 155.078 1388.16 154.653C1369.69 153.6 1353.12 159.291 1340.77 164.368C1321.48 172.307 1303.72 180.961 1288.01 190.071C1280.66 194.346 1272.5 199.377 1268.97 205.06C1268.14 206.419 1267.49 207.897 1266.97 209.705C1266.62 210.915 1266.36 212.149 1266.09 213.344C1265.82 214.657 1265.51 216.016 1265.11 217.345C1260.5 232.507 1239.21 247.669 1208.14 257.902C1205.05 258.924 1201.84 259.891 1198.64 260.787C1196.97 261.259 1195.22 261.73 1193.49 262.202L1192.75 262.402L1191.26 262.804L1189.77 263.21C1180.36 265.789 1171.28 268.62 1167.11 272.954C1162.74 277.473 1165.18 282.006 1168.22 286.768L1168.67 287.467C1168.75 287.584 1168.82 287.7 1168.9 287.817C1170.84 290.796 1172.81 293.885 1173.2 296.982C1173.58 300.236 1172.16 303.427 1170.7 306.43L1169.91 307.986C1168.99 309.825 1168.03 311.735 1167.36 313.614C1166.02 317.442 1165.9 321.45 1167.01 325.53C1170.76 339.316 1187.27 351.531 1212.35 359.045C1229.74 364.303 1249.65 368.964 1275.01 373.727C1318.73 381.925 1368.08 388.394 1422.12 393H1412.97C1362.2 388.441 1315.7 382.224 1274.21 374.443C1248.73 369.656 1228.7 364.971 1211.21 359.681C1185.72 352.034 1168.92 339.615 1165.11 325.616C1163.98 321.474 1164.1 317.395 1165.46 313.504C1166.13 311.602 1167.11 309.684 1168.03 307.821L1168.82 306.273C1170.26 303.325 1171.64 300.181 1171.28 297.022C1170.91 294.003 1168.95 290.961 1167.05 288.022C1166.83 287.678 1166.61 287.333 1166.39 286.987L1165.95 286.295C1163.13 281.791 1160.97 277.178 1165.32 272.663C1170.26 267.523 1181.53 264.489 1192.42 261.542C1194.16 261.078 1195.89 260.614 1197.56 260.142C1200.73 259.254 1203.88 258.295 1206.95 257.289C1237.61 247.181 1258.66 232.208 1263.21 217.25C1263.61 215.93 1263.9 214.578 1264.19 213.273C1264.44 212.079 1264.7 210.837 1265.07 209.618C1265.61 207.771 1266.24 206.262 1267.12 204.871C1270.73 199.054 1278.99 193.945 1286.44 189.622C1302.22 180.466 1320.04 171.788 1339.41 163.81C1352.08 158.607 1369.09 152.767 1388.43 153.875ZM768.346 388.229C771.898 389.518 774.067 391.239 775.622 393H773.568C772.128 391.436 770.131 389.935 767.059 388.818C764.064 387.726 759.514 387.207 755.52 387.49C753.466 387.639 750.682 388.064 749.107 389.251C747.706 390.296 747.706 391.569 747.898 392.686L747.955 393H746.035L745.978 392.741C745.786 391.514 745.786 390.092 747.418 388.874C748.934 387.734 751.699 386.964 755.194 386.72C759.763 386.39 764.909 386.987 768.346 388.229ZM1357.04 124.479C1367.46 125.163 1376.58 127.466 1385.41 129.698C1390.43 130.963 1395.63 132.276 1400.99 133.274C1413.14 135.53 1426.87 136.182 1440 135.318V136.119C1426.58 136.976 1412.58 136.292 1400.2 133.989C1394.73 132.968 1389.47 131.647 1384.4 130.366L1383.47 130.132L1381.6 129.663C1373.8 127.714 1365.7 125.846 1356.75 125.257C1344.54 124.447 1324.74 125.045 1293.79 139.413C1269.64 150.629 1246.98 162.592 1226.46 174.964C1216.3 181.087 1206.07 187.689 1202.11 195.148C1200.23 198.685 1199.83 202.379 1199.44 205.956C1199.23 207.826 1199.02 209.768 1198.6 211.678C1193.59 234.354 1156.97 255.859 1103.06 267.806C1100.79 268.309 1098.47 268.804 1096.15 269.307C1095.58 269.428 1095.02 269.549 1094.45 269.67L1092.76 270.035C1077.77 273.266 1062.99 276.784 1057.09 282.96C1050.85 289.484 1056.77 296.126 1063.01 303.16C1066.64 307.24 1070.38 311.46 1071.61 315.697C1073.15 321.081 1070.52 326.497 1067.96 331.731C1066.94 333.838 1065.89 336.015 1065.12 338.153C1057.96 358.149 1076.58 379.182 1112.29 393H1109.49C1074.32 378.993 1056.06 358.007 1063.22 338.043C1063.99 335.881 1065.06 333.696 1066.08 331.574C1068.61 326.402 1071.21 321.05 1069.69 315.791C1068.5 311.649 1064.79 307.467 1061.2 303.427C1055.12 296.566 1048.82 289.476 1055.29 282.677C1061.21 276.476 1075.45 272.909 1090.15 269.706L1091.85 269.337C1092.98 269.093 1094.11 268.85 1095.24 268.608C1097.57 268.112 1099.89 267.609 1102.16 267.114C1155.49 255.293 1191.72 234.024 1196.7 211.607C1197.1 209.721 1197.31 207.787 1197.52 205.916C1197.93 202.309 1198.33 198.583 1200.23 194.983C1204.26 187.382 1214.61 180.709 1224.86 174.523C1245.45 162.12 1268.16 150.134 1292.35 138.894C1323.94 124.227 1344.4 123.646 1357.04 124.479ZM949.958 297.069C950.746 298.751 949.939 300.433 949.152 302.06C948.634 303.121 948.115 304.213 948.038 305.275C947.866 308.481 951.61 311.303 955.584 314.29C958.157 316.224 960.826 318.22 962.323 320.35C965.954 325.44 962.783 330.635 958.602 335.723L957.984 336.467C957.672 336.838 957.356 337.209 957.039 337.579L956.402 338.319C956.296 338.442 956.189 338.565 956.083 338.687C955.181 339.741 954.298 340.778 953.453 341.816C940.032 358.314 941.549 376.793 956.986 393H954.912C939.59 376.691 938.15 358.133 951.629 341.564C952.474 340.527 953.376 339.481 954.278 338.428C959.366 332.517 964.646 326.41 960.48 320.57C959.04 318.526 956.429 316.561 953.894 314.659C949.978 311.72 945.926 308.67 946.118 305.259C946.195 304.127 946.733 302.995 947.27 301.91C948.058 300.283 948.806 298.751 948.077 297.218C946.118 293.115 933.696 291.017 923.789 291.716C914.074 292.392 905.722 294.907 897.638 297.328L896.045 297.808C844.358 313.26 783.571 323.478 720.25 327.338C713.242 327.77 706.061 328.124 699.11 328.477C678.662 329.499 657.523 330.552 637.997 333.508C625.882 335.347 604.435 339.67 597.062 347.97C593.317 352.177 593.708 356.778 594.587 361.304L594.775 362.239L594.97 363.171C595.162 364.146 595.373 365.121 595.526 366.079C597.082 375.071 595.296 384.189 590.342 393H588.365C593.357 384.213 595.162 375.103 593.626 366.135C593.453 365.176 593.261 364.209 593.05 363.242L592.855 362.294C591.857 357.388 591.109 352.355 595.258 347.703C602.899 339.104 624.902 334.655 637.344 332.777C657.062 329.782 678.317 328.721 698.88 327.691C705.811 327.345 712.973 326.992 719.962 326.559C782.976 322.716 843.475 312.553 894.912 297.171L896.506 296.691C904.762 294.216 913.306 291.653 923.482 290.938C934.464 290.175 947.75 292.447 949.958 297.069ZM470.918 0L440.986 27.2899C437.472 30.4732 433.517 34.0888 433.69 37.7123C433.882 42.2161 440.006 46.1225 446.496 50.249C449.107 51.9074 451.795 53.6209 454.061 55.3737C460.205 60.129 463.296 65.3245 465.312 69.3252C472.704 84.0941 472.954 99.7355 465.984 114.544C465.312 115.966 464.582 117.389 463.853 118.812C461.242 123.834 458.573 129.03 459.072 134.147C459.437 137.723 461.357 141.346 463.238 144.844C465.158 148.436 467.136 152.146 467.52 155.927C467.654 157.216 467.597 158.528 467.539 159.794C467.424 163.016 467.29 166.066 469.939 168.849C474.106 173.219 483.917 175.899 494.285 178.744C502.368 180.953 510.72 183.24 516.634 186.447C520.301 188.428 522.874 190.676 525.35 192.853C528.48 195.596 531.437 198.182 536.314 200.163C546.01 204.108 561.101 204.816 575.731 205.193C610.829 206.113 646.426 206.466 681.542 206.239C702.259 206.113 722.342 205.728 740.333 202.497C744.998 201.656 749.606 200.595 754.061 199.581C761.203 197.946 768.576 196.256 776.717 195.305C796.166 193.042 817.114 195.368 833.952 197.231C877.69 202.081 922.061 208.133 941.894 223.821C948.211 228.82 951.456 234.527 954.605 240.037C959.616 248.793 964.339 257.061 980.294 262.217C984.634 263.617 989.818 264.756 994.829 265.857C1004.2 267.916 1013.89 270.046 1019.19 274.015C1025.24 278.543 1023.32 283.66 1021.44 288.603C1020.63 290.773 1019.79 293.013 1019.65 295.127C1019.4 299.6 1022.32 303.891 1025.43 308.426C1027.53 311.508 1029.7 314.691 1030.77 317.937C1033.69 326.709 1028.47 335.426 1023.42 343.844C1019.52 350.375 1015.47 357.127 1015.32 363.816C1015.07 374.537 1025.22 385.093 1042.69 393H1035.11C1018.71 384.857 1009.31 374.395 1009.56 363.792C1009.71 356.836 1013.84 349.943 1017.83 343.285C1022.98 334.695 1027.83 326.583 1025.07 318.251C1024.05 315.17 1021.92 312.066 1019.88 309.063C1016.81 304.559 1013.63 299.898 1013.89 295.072C1014.03 292.801 1014.91 290.482 1015.76 288.242C1017.56 283.479 1019.25 278.975 1014.14 275.147C1009.65 271.791 1001.13 269.92 992.102 267.932C986.88 266.784 981.446 265.597 976.742 264.065C960.875 258.946 955.125 251.064 950.469 243.128L949.973 242.278C949.646 241.711 949.322 241.144 948.998 240.579C945.926 235.203 942.758 229.646 936.768 224.906C919.323 211.105 880.854 205.081 841.362 200.519L838.813 200.226C837.112 200.032 835.411 199.841 833.711 199.652L832.435 199.51C816.288 197.718 796.205 195.494 778.31 197.577C770.803 198.449 764.045 199.998 756.883 201.64C752.294 202.686 747.571 203.77 742.637 204.651C724.548 207.907 704.849 208.42 684.543 208.576L681.638 208.597C646.368 208.824 610.598 208.471 575.366 207.551C559.642 207.135 543.36 206.356 532.262 201.837C526.656 199.558 523.354 196.657 520.147 193.851C517.67 191.69 515.347 189.654 512.045 187.87C506.707 184.977 498.758 182.808 491.098 180.701C480.422 177.785 469.402 174.759 464.582 169.705C461.51 166.491 461.664 163.064 461.779 159.755C461.837 158.52 461.894 157.247 461.76 156.021C461.395 152.453 459.475 148.837 457.613 145.347C455.693 141.747 453.696 138.029 453.312 134.241C452.774 128.833 455.539 123.488 458.208 118.324C458.938 116.918 459.667 115.503 460.339 114.096C467.155 99.5862 466.925 84.2671 459.667 69.7968C457.728 65.9533 454.771 60.97 448.973 56.4741C446.803 54.8156 444.192 53.1415 441.658 51.5223C435.014 47.3015 428.16 42.9313 427.93 37.7594C427.738 33.6015 431.981 29.7344 435.725 26.3231L464.602 0H470.918ZM208.378 367.203C213.006 368.753 215.586 370.962 217.936 373.166L218.573 373.767C220.243 375.346 221.971 376.973 224.371 378.357C229.604 381.357 237.914 383.159 246.164 384.831L247.93 385.187C249.274 385.454 250.598 385.722 251.904 385.997C256.032 386.846 260.678 387.907 263.309 389.675C264.864 390.713 265.574 391.892 265.978 393H264.038C263.654 392.01 263.002 390.972 261.677 390.084C259.296 388.496 254.938 387.498 251.04 386.696C249.734 386.429 248.41 386.162 247.085 385.895C238.042 384.071 228.691 382.193 222.816 378.813C220.282 377.359 218.515 375.692 216.806 374.073C214.253 371.66 211.853 369.381 207.168 367.817C201.677 365.985 193.152 365.404 184.378 366.268C177.619 366.928 171.283 368.288 165.158 369.601C164.064 369.837 162.989 370.065 161.914 370.292C111.072 380.982 53.3184 383.992 0 385.863V385.077C53.1072 383.206 110.554 380.204 161.03 369.593C162.106 369.365 163.181 369.137 164.256 368.901C170.496 367.573 176.947 366.19 183.936 365.506C193.421 364.57 202.33 365.191 208.378 367.203ZM298.176 234.739C324.691 236.484 340.109 243.715 343.642 250.113C347.251 256.645 340.992 263.145 334.944 269.433L334.003 270.415C314.554 290.741 308.736 307.994 316.224 323.148C327.187 345.321 365.798 358.047 399.206 360.829C402.355 361.096 405.638 361.293 408.826 361.481C416.41 361.945 424.243 362.425 431.309 363.808C447.533 367.007 457.709 375.095 456.038 383.482C455.405 386.633 453.254 389.825 449.683 393H447.571C450.95 390.084 453.427 386.861 454.118 383.419C455.731 375.346 446.016 367.573 430.464 364.515C423.686 363.179 415.987 362.715 408.538 362.26C405.331 362.071 402.029 361.867 398.822 361.599C378.067 359.87 358.944 355.091 343.488 347.774C329.146 340.975 318.797 332.289 314.342 323.305C306.778 307.994 312.614 290.6 332.218 270.125L333.158 269.142C333.53 268.756 333.903 268.369 334.274 267.981L335.013 267.205C340.282 261.635 344.875 255.926 341.779 250.286C338.381 244.147 323.501 237.199 297.869 235.509C283.699 234.582 269.184 235.643 255.149 236.68C250.387 237.026 245.491 237.388 240.672 237.663C220.224 238.842 199.776 240.681 179.885 243.149C139.757 248.124 102.125 255.536 68.0064 265.181C66.2784 265.66 64.5696 266.155 62.8416 266.651L60.6151 267.289C49.4543 270.485 37.842 273.663 24.576 275.1C16.5504 275.972 8.3712 276.161 0 276.232V275.446C8.2176 275.375 16.2624 275.186 24.096 274.345C37.92 272.844 50.0352 269.37 61.7472 266.006C63.4752 265.511 65.184 265.016 66.912 264.528C101.203 254.845 139.008 247.401 179.328 242.402C199.315 239.919 219.859 238.064 240.403 236.885C245.184 236.61 250.08 236.256 254.803 235.902C268.992 234.857 283.68 233.78 298.176 234.739ZM1404.12 168.573C1410.53 168.888 1416.29 170.012 1421.86 171.096C1425.04 171.725 1428.35 172.37 1431.71 172.841C1434.39 173.227 1437.18 173.502 1440 173.667V174.461C1436.97 174.288 1433.97 173.997 1431.09 173.588C1427.62 173.093 1424.28 172.441 1421.03 171.812C1415.35 170.703 1409.99 169.658 1403.88 169.352C1388.62 168.589 1374.7 172.959 1364.26 176.85C1347.48 183.091 1332.17 190.086 1318.79 197.624C1312.17 201.357 1305.6 205.445 1302.41 210.019C1301.63 211.159 1300.99 212.377 1300.42 213.855C1300.01 214.932 1299.69 216.009 1299.36 217.093C1299.05 218.123 1298.75 219.153 1298.36 220.182C1293.64 232.892 1277.34 245.46 1253.64 254.664C1251.26 255.591 1248.84 256.472 1246.46 257.274C1245.04 257.745 1243.6 258.217 1242.14 258.688C1234.21 261.259 1226.02 263.923 1222.12 267.947C1218.22 271.964 1219.99 275.949 1221.85 280.162C1222.92 282.591 1224.04 285.106 1223.98 287.637C1223.92 290.144 1222.73 292.636 1221.29 295.402L1221.04 295.874C1220.1 297.666 1219.12 299.521 1218.49 301.345C1217.41 304.465 1217.3 307.782 1218.16 311.217C1221.04 322.794 1234.12 333.02 1254.01 339.285C1267.8 343.616 1284.58 347.467 1306.81 351.397C1346.5 358.392 1391.19 363.8 1440 367.486V368.288C1390.92 364.586 1345.96 359.155 1306.06 352.112C1283.65 348.159 1266.74 344.284 1252.84 339.906C1232.52 333.516 1219.18 323.085 1216.24 311.295C1215.38 307.805 1215.49 304.418 1216.59 301.234C1217.24 299.38 1218.22 297.517 1219.16 295.709L1219.41 295.237C1220.83 292.518 1222 290.065 1222.06 287.629C1222.12 285.169 1221.02 282.693 1219.95 280.303L1219.63 279.571C1217.92 275.658 1216.47 271.637 1220.33 267.657C1224.42 263.436 1232.83 260.708 1240.95 258.075C1242.41 257.604 1243.83 257.14 1245.24 256.668C1247.6 255.874 1249.98 255.01 1252.34 254.098C1275.72 245.012 1291.8 232.609 1296.46 220.064C1296.84 219.042 1297.15 218.021 1297.46 216.999C1297.79 215.906 1298.11 214.822 1298.53 213.737C1299.11 212.22 1299.74 210.97 1300.57 209.807C1303.83 205.115 1310.52 200.957 1317.24 197.168C1330.69 189.575 1346.09 182.548 1362.95 176.268C1373.7 172.268 1388.12 167.772 1404.12 168.573ZM133.69 269.449C172.109 262.838 252.058 249.091 281.549 255.725C287.674 257.101 291.398 259.294 292.608 262.241C298.406 276.271 256.262 293.571 243.206 298.539C216.902 308.544 185.376 316.058 152.659 323.502C113.107 332.509 68.2752 342.712 19.4496 343.388C18.0288 343.411 16.608 343.419 15.2256 343.419C9.7344 343.419 4.6656 343.262 0 342.94V342.146C5.7984 342.555 12.2496 342.704 19.392 342.602C67.7568 341.934 112.378 331.778 151.738 322.818C184.339 315.398 215.75 307.916 241.901 297.965C254.784 293.06 296.352 276.02 290.707 262.375C289.594 259.679 286.195 257.674 280.627 256.417C251.962 249.964 172.57 263.617 134.438 270.172C126.336 271.563 119.962 272.663 116.198 273.206C77.6064 278.747 34.2336 284.972 0 296.118V295.112C34.2912 284.131 77.2608 277.953 115.565 272.459C119.27 271.932 125.626 270.832 133.69 269.449ZM1419.8 183.264C1424.85 183.46 1429.46 184.191 1433.91 184.891C1435.91 185.205 1437.95 185.527 1440 185.795V186.62C1437.7 186.329 1435.43 185.968 1433.22 185.63C1428.88 184.938 1424.39 184.238 1419.61 184.05C1407.59 183.586 1396.74 186.463 1387.7 189.34C1373.53 193.843 1360.7 199.18 1349.55 205.185C1344.79 207.763 1338.91 211.206 1335.84 214.987C1335.09 215.891 1334.48 216.85 1333.88 218.021C1333.38 218.987 1332.96 219.954 1332.54 220.929C1332.25 221.628 1331.94 222.328 1331.62 223.027C1326.85 233.096 1315.03 243.44 1299.19 251.418C1297.56 252.243 1295.9 253.021 1294.31 253.737C1293.16 254.247 1291.99 254.758 1290.8 255.269C1285.57 257.501 1280.18 259.82 1277.13 262.941C1273.98 266.14 1274.36 269.244 1274.76 272.522C1275 274.4 1275.24 276.342 1274.76 278.299C1274.32 280.091 1273.32 281.844 1272.25 283.699L1271.87 284.375C1271.02 285.868 1270.16 287.472 1269.62 289.075C1268.81 291.48 1268.7 294.113 1269.31 296.904C1271.37 306.469 1280.72 314.502 1295.67 319.517C1309 323.989 1324.86 326.85 1338.62 329.059C1369.42 334.003 1403.42 337.87 1440 340.582V341.383C1403.17 338.656 1368.92 334.765 1337.91 329.79C1324.01 327.558 1307.98 324.665 1294.46 320.122C1279.1 314.974 1269.5 306.752 1267.39 296.974C1266.78 294.129 1266.89 291.433 1267.72 288.965C1268.28 287.33 1269.14 285.711 1270 284.194L1270.39 283.518C1271.44 281.687 1272.44 279.957 1272.86 278.22C1273.31 276.318 1273.08 274.408 1272.84 272.561C1272.46 269.339 1272.04 266.006 1275.34 262.65C1278.53 259.388 1284.06 257.014 1289.41 254.727C1290.59 254.216 1291.76 253.713 1292.89 253.21C1294.46 252.502 1296.08 251.732 1297.69 250.923C1313.34 243.039 1325.03 232.821 1329.72 222.878C1330.06 222.186 1330.35 221.487 1330.66 220.795C1331.08 219.813 1331.5 218.83 1332 217.856C1332.61 216.661 1333.25 215.671 1334.02 214.743C1337.16 210.844 1343.16 207.331 1348.03 204.706C1359.26 198.646 1372.22 193.27 1386.53 188.719C1395.86 185.748 1407.09 182.769 1419.8 183.264ZM89.3184 290.081C99.8208 288.525 116.064 288.25 126.95 291.331C133.613 293.217 137.203 296.102 137.299 299.67C137.434 304.033 131.194 308.356 118.234 312.875C100.339 319.124 79.008 323.942 54.7968 327.212C41.7216 328.98 30.4512 329.845 20.3136 329.845C15.6864 329.845 11.2704 329.664 7.0464 329.303C4.9152 329.13 2.208 328.831 0 328.21V327.196C2.016 327.998 5.1072 328.336 7.4304 328.54C20.6208 329.648 35.4816 328.988 54.2016 326.465C78.1632 323.227 99.2832 318.456 116.986 312.278C129.485 307.916 135.494 303.797 135.379 299.678C135.283 296.33 132.077 293.736 125.856 291.975C117.005 289.468 102.259 288.996 89.9904 290.82L84.96 291.567C84.4749 291.638 83.9894 291.71 83.5036 291.782L80.5856 292.215C60.14 295.254 39.36 298.546 22.6944 304.379C11.5392 308.285 3.6864 313.025 0 317.937V315.61C4.2624 311.311 11.5968 307.224 21.4464 303.781C30.5088 300.614 40.7232 298.185 51.4176 296.149C62.1312 294.105 73.3056 292.455 84.3072 290.828L89.3184 290.081ZM787.411 217.573C795.13 216.857 803.059 217.015 810.739 217.164C825.062 217.447 839.866 217.73 853.517 220.009C888.25 225.786 902.822 242.717 901.69 255.992C901.248 261.086 899.098 265.306 895.104 268.891C890.534 273.009 882.97 276.869 871.277 281.026C831.341 295.261 777.523 301.777 730.195 306.768C673.133 312.781 613.478 317.937 553.901 317.937C525.178 317.937 496.454 316.742 468.077 313.858C461.184 313.158 453.37 312.238 447.61 310.14C440.64 307.585 436.973 303.262 437.818 298.578C438.586 294.381 442.406 290.458 446.112 286.662L470.803 261.337C477.658 254.302 484.762 247.024 496.55 240.94C509.299 234.369 528.019 229.119 550.733 225.747C582.835 220.984 610.79 220.835 647.174 225.228C686.573 229.984 727.584 228.789 762.643 221.88C764.352 221.542 766.061 221.188 767.789 220.835C774.01 219.546 780.461 218.217 787.411 217.573ZM810.643 217.95C803.098 217.801 795.283 217.651 787.834 218.343C781.114 218.964 774.778 220.269 768.653 221.534C766.925 221.896 765.197 222.249 763.469 222.587C727.987 229.583 686.496 230.785 646.618 225.983C629.299 223.892 613.92 222.839 599.078 222.839C583.123 222.839 567.802 224.049 551.386 226.486C529.018 229.803 510.566 234.975 498.048 241.428C486.432 247.417 479.386 254.64 472.57 261.628L447.898 286.953C444.25 290.694 440.486 294.561 439.738 298.633C438.931 303.082 442.349 307.161 448.896 309.55C454.31 311.531 461.568 312.388 468.538 313.095C555.379 321.906 645.389 314.895 729.715 306.006C776.832 301.038 830.4 294.561 870.029 280.437C881.491 276.35 888.902 272.577 893.357 268.568C897.235 265.079 899.347 260.952 899.77 255.969C900.883 242.953 886.675 226.376 852.806 220.732C839.443 218.508 824.813 218.225 810.643 217.95ZM1435.45 197.962C1437 197.993 1438.52 198.072 1440 198.174V198.976C1438.48 198.866 1436.93 198.779 1435.35 198.748C1426.06 198.583 1417.52 200.304 1411.1 201.837C1399.64 204.572 1389.27 208.251 1380.33 212.747C1375.08 215.38 1371.55 217.675 1369.25 219.962C1368.56 220.638 1367.94 221.369 1367.33 222.186C1366.6 223.153 1365.96 224.144 1365.35 225.103L1364.85 225.881C1359.82 233.662 1352.68 241.569 1344.75 248.132C1343.9 248.824 1343.06 249.5 1342.2 250.168C1341.2 250.923 1340.14 251.669 1339.07 252.432C1336.65 254.145 1334.13 255.914 1332.13 257.934C1329.73 260.331 1328.72 262.563 1327.64 264.921C1327.03 266.242 1326.41 267.609 1325.53 268.993C1325.07 269.716 1324.53 270.439 1323.99 271.178C1323.48 271.893 1322.94 272.616 1322.46 273.355C1321.65 274.581 1321.09 275.713 1320.75 276.806C1320.19 278.503 1320.1 280.406 1320.44 282.598C1321.65 290.254 1327.35 296.023 1337.36 299.757C1346.53 303.184 1358.67 305.125 1370.4 306.721C1392.19 309.676 1415.5 312.042 1440 313.779V314.565C1415.29 312.828 1391.77 310.446 1369.79 307.467C1357.86 305.848 1345.52 303.86 1336.07 300.338C1325.66 296.463 1319.77 290.513 1318.54 282.646C1318.18 280.398 1318.27 278.456 1318.85 276.703C1319.21 275.572 1319.79 274.408 1320.6 273.151C1321.09 272.404 1321.61 271.673 1322.15 270.958C1322.69 270.227 1323.21 269.504 1323.67 268.796C1324.53 267.437 1325.15 266.085 1325.76 264.78C1326.8 262.485 1327.89 260.111 1330.35 257.635C1332.4 255.568 1334.96 253.776 1337.4 252.039C1338.47 251.284 1339.53 250.538 1340.51 249.791C1341.37 249.138 1342.2 248.47 1343.02 247.786C1350.91 241.263 1358 233.418 1362.99 225.684L1363.49 224.906C1364.1 223.939 1364.76 222.933 1365.48 221.959C1366.12 221.11 1366.77 220.363 1367.48 219.663C1369.86 217.298 1373.47 214.947 1378.83 212.251C1387.93 207.677 1398.47 203.943 1410.12 201.153C1416.77 199.565 1425.64 197.765 1435.45 197.962ZM767.654 231.32C773.414 230.864 779.405 231.013 784.704 231.147C796.627 231.453 806.477 231.807 815.904 233.403C842.419 237.914 852.288 249.924 850.291 259.828C849.542 263.554 847.642 266.603 844.493 269.15C840.672 272.247 834.605 275.116 825.446 278.181C795.091 288.344 754.714 292.793 715.968 296.487C676.07 300.346 629.971 304.151 583.68 304.151C576.749 304.151 569.837 304.064 562.925 303.883C547.642 303.475 534.086 302.641 521.472 301.321C516.442 300.794 510.701 300.103 506.285 298.523C501.043 296.644 498.182 293.595 498.413 290.152C498.605 287.236 500.755 284.485 503.347 281.435C509.568 274.149 515.059 268.254 520.589 262.893C527.251 256.433 535.046 251.418 544.397 247.551C549.926 245.263 556.531 243.204 563.981 241.443C571.43 239.675 579.744 238.189 588.691 237.05C614.266 233.788 637.114 233.623 665.107 236.5C693.984 239.471 723.917 238.63 749.395 234.142C750.624 233.929 751.853 233.701 753.062 233.473C757.709 232.625 762.509 231.736 767.654 231.32ZM784.589 231.933C779.405 231.799 773.549 231.65 768.019 232.098C763.104 232.491 758.4 233.356 753.85 234.197L750.163 234.865C724.301 239.423 693.926 240.272 664.646 237.262C651.629 235.926 639.744 235.258 628.166 235.258C615.187 235.258 602.592 236.099 589.267 237.804C571.661 240.052 556.627 243.613 545.76 248.109C541.171 250.003 536.966 252.18 533.069 254.688C529.19 257.195 525.638 260.017 522.355 263.2C516.845 268.545 511.373 274.424 505.152 281.695C502.618 284.673 500.506 287.369 500.333 290.168C500.122 293.382 502.752 296.212 507.533 297.933C511.642 299.395 517.133 300.056 521.952 300.559C534.451 301.863 547.891 302.696 563.04 303.097C615.936 304.489 669.811 300.15 715.526 295.717C754.061 292.054 794.189 287.629 824.218 277.576C833.184 274.581 839.078 271.791 842.784 268.796C845.818 266.344 847.642 263.389 848.371 259.765C850.31 250.144 840.787 238.488 815.174 234.126C806.016 232.577 796.32 232.232 784.589 231.933ZM224.947 269.912C235.853 269.661 243.974 270.966 247.238 273.473C250.406 275.894 248.698 279.116 242.419 282.543C230.419 289.107 210.413 293.162 190.598 293.162C189.312 293.162 188.006 293.147 186.72 293.107C184.474 293.044 182.112 292.934 179.962 292.502C174.182 291.339 172.493 288.415 172.781 286.269C173.357 282.088 179.923 277.867 190.31 274.982C195.59 273.52 201.466 272.318 207.418 271.445C213.35 270.573 219.379 270.038 224.947 269.912ZM227.52 270.667C226.714 270.667 225.888 270.683 225.043 270.698C214.253 270.942 201.677 272.781 191.405 275.634C186.451 277.002 182.419 278.692 179.539 280.523C176.678 282.363 174.989 284.343 174.701 286.316C174.432 288.218 175.872 290.804 180.806 291.795C182.65 292.164 184.8 292.266 186.854 292.321C207.264 292.879 228.48 288.855 240.883 282.072C246.682 278.904 248.352 275.98 245.549 273.842C242.88 271.799 236.39 270.667 227.52 270.667ZM747.936 245.075C751.45 244.886 755.04 244.996 758.688 245.13C765.504 245.389 772.147 245.711 778.291 246.796C794.227 249.594 802.31 256.228 798.893 263.687C797.818 266.037 796.224 267.861 793.862 269.425C790.733 271.508 786.202 273.387 779.578 275.344C757.536 281.883 728.314 284.147 702.547 286.135L701.722 286.198C673.306 288.407 643.104 290.396 613.133 290.396C609.389 290.396 605.664 290.364 601.939 290.301C591.072 290.105 582.47 289.625 574.867 288.784C571.603 288.423 567.878 287.92 564.941 286.906C561.523 285.727 559.411 283.895 558.989 281.75C558.605 279.8 559.603 277.882 560.563 276.24C563.194 271.822 566.496 267.861 570.374 264.45C575.002 260.402 582.586 256.841 592.301 254.145C597.005 252.84 602.266 251.709 608.006 250.742C613.747 249.775 619.987 248.973 626.688 248.352C645.466 246.615 663.36 246.435 683.021 247.771C701.203 249.013 720.096 248.525 736.224 246.395C736.934 246.301 737.645 246.207 738.355 246.104C741.427 245.688 744.595 245.248 747.936 245.075ZM758.515 245.916C754.963 245.782 751.507 245.672 748.186 245.853C745.018 246.018 742.08 246.427 738.97 246.851C738.24 246.953 737.53 247.048 736.8 247.142C720.403 249.311 701.184 249.807 682.694 248.549C674.208 247.967 666.048 247.676 658.003 247.676C647.674 247.676 637.517 248.156 627.11 249.123C613.958 250.341 602.611 252.243 593.376 254.798C588.653 256.102 584.448 257.619 580.877 259.294C577.306 260.976 574.349 262.823 572.122 264.78C568.282 268.144 565.018 272.066 562.445 276.42C561.504 278.008 560.544 279.847 560.909 281.687C561.12 282.803 562.099 284.894 566.17 286.308C568.838 287.22 572.314 287.692 575.366 288.03C582.816 288.855 591.302 289.327 602.016 289.515C635.443 290.097 669.523 287.896 701.376 285.428L702.202 285.365C727.757 283.384 756.749 281.144 778.445 274.707C784.858 272.813 789.235 271.005 792.23 269.016C794.458 267.531 795.974 265.794 796.992 263.546C800.237 256.456 792.595 250.168 777.523 247.519C771.629 246.482 765.178 246.167 758.515 245.916ZM1440 213.069V213.863C1438.1 213.981 1436.22 214.138 1434.37 214.342C1420.61 215.875 1408.34 220.269 1400.72 226.392C1394.65 231.265 1391.33 237.105 1390.29 244.768L1390.18 245.546C1389.87 248.03 1389.54 250.6 1387.12 252.935C1385.43 254.57 1382.8 256.016 1380.25 257.407C1377.29 259.018 1374.51 260.535 1373.03 262.343C1371.44 264.285 1371.51 266.415 1371.59 268.301C1371.76 272.569 1372.47 276.994 1379.08 280.02C1384.74 282.614 1393.57 283.597 1402.14 284.383C1414.62 285.53 1427.27 286.481 1440 287.244V288.038C1427.14 287.267 1414.35 286.301 1401.72 285.145C1392.84 284.336 1383.69 283.314 1377.64 280.539C1370.61 277.317 1369.84 272.734 1369.67 268.309C1369.59 266.462 1369.52 264.159 1371.21 262.092C1372.8 260.166 1375.8 258.523 1378.71 256.936C1381.19 255.576 1383.76 254.177 1385.36 252.628C1387.64 250.42 1387.95 247.92 1388.26 245.507L1388.37 244.729C1389.43 236.948 1392.81 231.005 1399.01 226.03C1406.88 219.711 1419.59 215.175 1433.88 213.588C1435.89 213.36 1437.95 213.195 1440 213.069ZM701.357 259.026C713.222 258.586 729.485 257.989 740.698 260.19C745.978 261.227 748.973 262.548 749.606 264.104C750.317 265.817 748.128 267.712 743.117 269.739C730.138 275.006 708.288 275.477 690.739 275.855L687.398 275.925C672.019 276.271 656.41 276.538 640.992 276.719C639.955 276.727 638.918 276.735 637.901 276.735C632.621 276.735 627.648 276.507 623.635 275.304C616.57 273.182 616.147 268.773 620.198 265.975C625.325 262.438 635.078 261.172 640.435 260.732C652.339 259.749 665.338 259.616 677.914 259.482C685.517 259.404 693.37 259.317 700.742 259.05L701.357 259.026ZM718.886 259.396C712.8 259.396 706.733 259.616 701.53 259.812L700.915 259.828C693.485 260.103 685.594 260.19 677.971 260.268C665.472 260.402 652.55 260.535 640.8 261.502C636.518 261.856 632.64 262.477 629.414 263.31C626.189 264.143 623.578 265.181 621.85 266.375C618.24 268.875 618.547 272.805 624.768 274.668C629.069 275.957 634.867 275.996 640.934 275.933C656.333 275.752 671.923 275.485 687.283 275.139L690.643 275.069C707.866 274.699 729.312 274.243 741.773 269.181C746.304 267.342 748.32 265.676 747.725 264.23C747.187 262.941 744.538 261.824 739.853 260.905C733.92 259.734 726.394 259.396 718.886 259.396ZM947.136 169.155C969.408 169.155 990.259 175.412 1008.65 182.203C1028.08 189.371 1054.71 192.22 1081.4 194.543L1084.17 194.782C1086.47 194.98 1088.77 195.174 1091.06 195.368C1099.66 196.099 1107.78 196.783 1115.69 197.6C1129.84 199.055 1147.45 200.862 1158.72 205.94C1164.86 208.707 1168.92 212.354 1170.43 216.48C1174.16 226.604 1161.33 237.686 1137.77 244.713C1119.26 250.223 1094.78 253.477 1062.89 254.664C1058.09 254.845 1052.72 254.986 1047.09 254.986C1031.17 254.986 1013.11 253.839 999.494 249.107C985.237 244.145 979.608 236.658 974.867 229.164L974.323 228.3C974.053 227.868 973.785 227.436 973.517 227.005C972.307 225.063 971.059 223.059 969.696 221.149C964.032 213.179 952.435 202.246 929.338 195.439C927.648 194.944 925.862 194.449 924.077 193.946L922.892 193.616C921.905 193.34 920.918 193.063 919.941 192.783L918.773 192.445C910.641 190.067 903.446 187.406 902.592 183.445C901.843 179.915 907.085 176.158 916.627 173.384C927.014 170.397 937.21 169.155 947.136 169.155ZM1007.37 182.784C981.35 173.187 950.342 164.651 917.722 174.028C908.755 176.638 903.821 180.135 904.512 183.374C905.453 187.815 915.475 190.597 925.152 193.293C926.957 193.796 928.742 194.299 930.451 194.802C954.01 201.743 965.798 212.841 971.539 220.929C972.902 222.855 974.17 224.867 975.36 226.808C975.448 226.95 975.537 227.092 975.625 227.234L976.425 228.512C981.167 236.045 986.639 243.606 1000.74 248.51C1014.34 253.241 1034.02 254.947 1062.72 253.878C1094.25 252.707 1118.44 249.5 1136.64 244.077C1159.62 237.223 1172.14 226.439 1168.53 216.598C1167.07 212.621 1163.17 209.123 1157.3 206.466C1146.41 201.57 1129.11 199.793 1115.23 198.363C1107.34 197.553 1099.24 196.862 1090.66 196.138L1087.88 195.903C1058.7 193.425 1028.84 190.707 1007.37 182.784ZM1014.59 204.918C1018.08 204.478 1021.65 204.588 1025.61 204.761C1036.26 205.217 1046.92 206.011 1057.23 206.773C1066.25 207.441 1075.56 208.133 1084.82 208.597C1087.56 208.73 1090.52 208.801 1093.67 208.88C1102.56 209.084 1112.62 209.328 1119.84 211.285C1130.09 214.075 1134.47 217.463 1132.8 221.353C1129.57 228.875 1103.88 236.044 1087.62 237.671C1080.33 238.402 1072.09 239.078 1063.6 239.078C1060.47 239.078 1057.32 238.991 1054.16 238.771C1041.18 237.867 1028.41 234.762 1018.21 230.031C1008.52 225.519 1002.68 220.221 1001.78 215.112C1001.05 211.065 1004.76 206.152 1014.59 204.918ZM1020.17 205.398C1018.43 205.398 1016.76 205.468 1015.14 205.673C1006.33 206.781 1003.03 211.308 1003.68 215.05C1004.56 219.994 1010.25 225.134 1019.65 229.512C1029.56 234.11 1041.93 237.12 1054.48 237.993C1065.81 238.779 1077.37 237.883 1087.16 236.908C1102.94 235.328 1127.83 228.435 1130.9 221.22C1132.44 217.659 1128.35 214.547 1118.78 211.945C1111.99 210.098 1102.2 209.862 1093.56 209.658C1090.39 209.587 1087.39 209.516 1084.59 209.375C1075.28 208.911 1065.93 208.211 1056.88 207.543C1046.61 206.781 1035.99 205.995 1025.41 205.539C1023.57 205.46 1021.84 205.398 1020.17 205.398ZM415.757 182.399C437.472 179.09 476.909 184.278 492.749 190.676C507.974 196.83 510.605 214.83 497.203 221.251C493.363 223.098 487.219 224.096 480.672 224.096C477.542 224.096 474.317 223.869 471.206 223.389C461.683 221.943 454.598 218.665 450.086 216.331C448.358 215.435 446.669 214.499 445.037 213.603C441.389 211.583 437.626 209.5 433.21 207.74C429.773 206.372 425.856 205.162 422.074 203.998C418.003 202.741 413.798 201.444 410.112 199.927C403.43 197.176 397.402 192.727 400.57 188.506C402.605 185.818 408.269 183.531 415.757 182.399ZM491.405 191.234C475.93 184.985 437.53 179.923 416.429 183.13C409.498 184.183 404.256 186.282 402.413 188.742C399.475 192.625 405.178 196.783 411.475 199.377C415.066 200.847 419.213 202.128 423.226 203.37C427.066 204.556 431.021 205.775 434.554 207.182C439.085 208.982 442.886 211.096 446.573 213.132C448.205 214.028 449.875 214.955 451.584 215.843C455.962 218.107 462.816 221.275 471.878 222.658C480.749 224.01 490.579 223.224 495.744 220.74C508.666 214.547 506.093 197.176 491.405 191.234ZM434.746 0C430.848 4.92822 425.587 9.73854 420.422 14.4624C408.768 25.1048 397.766 35.1578 401.184 46.1618C402.854 51.5459 408.096 56.6942 413.146 61.6696C415.162 63.6581 417.254 65.7096 419.098 67.7532C431.29 81.2881 433.978 96.5208 426.662 110.637C425.03 113.781 422.88 116.941 420.806 119.991C417.235 125.257 413.549 130.704 412.416 136.222C411.802 139.303 411.955 142.51 412.109 145.607C412.416 151.989 412.723 158.583 406.291 164.478C396.73 173.219 373.862 179.302 338.362 182.549C318.778 184.341 298.541 185.323 278.957 186.274C266.266 186.895 253.133 187.532 240.326 188.381C208.224 190.519 176.16 194.118 145.152 197.6C99.168 202.764 51.6096 208.109 3.2064 208.73C2.4768 208.738 1.7088 208.746 0.9024 208.746C0.5952 208.746 0.3072 208.746 0 208.738V207.952C1.0944 207.96 2.1504 207.96 3.1488 207.944C51.3216 207.331 98.7648 201.994 144.653 196.846C175.718 193.356 207.821 189.748 240.019 187.602C252.864 186.754 266.016 186.109 278.726 185.496C298.253 184.545 318.451 183.562 337.939 181.786C372.826 178.595 395.232 172.661 404.525 164.156C410.803 158.426 410.477 151.918 410.189 145.622C410.035 142.502 409.882 139.279 410.515 136.151C411.648 130.57 415.373 125.084 418.963 119.779C421.037 116.737 423.168 113.601 424.781 110.472C432.019 96.5051 429.37 81.4296 417.293 68.0204C415.469 65.9926 413.395 63.949 411.379 61.9761C406.272 56.9457 400.973 51.7502 399.283 46.264C395.955 35.5744 406.35 25.4266 417.067 15.6101L418.139 14.6296C418.318 14.4664 418.497 14.3032 418.675 14.1401C423.725 9.51846 428.87 4.81032 432.73 0H434.746ZM396.326 0C393.158 5.3841 389.03 10.6817 382.886 15.6728C379.949 18.0466 376.55 20.3495 373.248 22.5818C369.658 25.0262 365.933 27.5414 362.842 30.1431C347.482 43.1121 347.789 59.1622 363.667 72.029C365.798 73.7504 368.237 75.4639 370.598 77.1223C375.974 80.8951 381.523 84.7937 383.866 89.1403C386.611 94.265 384.672 99.5705 382.771 104.703C382.253 106.126 381.715 107.596 381.293 109.026C379.91 113.656 379.584 118.419 379.296 123.017C378.97 127.922 378.624 132.999 376.992 137.951C374.342 146.039 366.662 156.996 345.158 163.276C329.088 167.96 308.851 169.021 289.267 170.035L287.635 170.122C222.854 173.51 158.285 179.129 95.712 186.832L90.9888 187.414L87.4138 187.856C62.9602 190.876 38.0133 193.82 13.5552 193.82C9.024 193.82 4.4928 193.718 0 193.497V192.704C25.0285 193.952 50.9067 191.425 76.4188 188.378L79.5409 188.003C83.1809 187.562 86.8125 187.114 90.432 186.667L95.1744 186.078C157.824 178.367 222.49 172.731 287.386 169.344L289.018 169.257C290.597 169.175 292.182 169.093 293.768 169.008L296.147 168.879C313.206 167.942 330.296 166.646 344.045 162.631C364.992 156.516 372.48 145.779 375.091 137.849C376.704 132.936 377.05 127.882 377.376 122.993C377.664 118.379 377.99 113.601 379.373 108.932C379.814 107.485 380.352 106.016 380.87 104.585C382.733 99.5233 384.672 94.2964 381.984 89.3053C379.718 85.0845 374.227 81.241 368.928 77.5153C366.566 75.849 364.109 74.1277 361.958 72.3827C345.811 59.3037 345.485 42.9863 361.114 29.7973C364.243 27.172 367.987 24.6332 371.616 22.1731C374.88 19.9565 378.278 17.6614 381.158 15.3191C387.168 10.4538 391.219 5.27406 394.349 0H396.326ZM523.2 0C501.062 10.0372 483.072 20.9548 483.994 33.6172C484.416 39.245 488.774 44.7548 492.979 50.0761C494.285 51.7188 495.629 53.4166 496.838 55.0907C506.765 68.8536 509.165 83.6225 503.77 97.7941C502.387 101.473 500.448 105.175 498.566 108.751C495.802 114.041 492.941 119.503 491.789 124.966C490.214 132.465 491.654 143.036 507.36 150.857C511.757 153.042 517.229 154.976 522.509 156.838C531.302 159.943 540.403 163.15 544.762 167.63C546.374 169.273 547.315 171.073 548.218 172.802C549.888 175.978 551.462 178.972 556.762 181.094C560.794 182.714 566.342 183.507 572.621 184.309C612.346 189.34 654.067 193.097 690.259 186.518C700.07 184.726 709.286 182.179 718.195 179.719L719.262 179.423L721.401 178.832C733.911 175.385 746.934 172.02 761.894 170.876C775.584 169.831 789.581 170.766 803.098 171.67C811.238 172.213 819.648 172.779 827.923 172.904C868.531 173.502 908.506 162.686 923.021 147.155C931.622 137.935 931.642 127.694 931.661 118.662C931.718 97.4168 931.795 70.9679 968.832 52.662C975.763 49.235 983.904 46.1696 991.776 43.2064C999.206 40.4083 1006.91 37.5158 1013.53 34.3246C1033.27 24.8219 1043.56 12.3795 1043.04 0H1044.96C1045.48 12.5603 1035.01 25.1913 1014.99 34.8277C1008.29 38.0581 1000.55 40.9742 993.062 43.7881C985.248 46.7277 977.165 49.7774 970.31 53.165C933.715 71.2509 933.638 97.5426 933.581 118.662C933.562 127.764 933.542 138.077 924.806 147.43C910.022 163.276 869.28 174.335 827.846 173.69C819.456 173.565 810.989 172.999 802.79 172.448C789.427 171.552 775.622 170.633 762.259 171.655C746.4 172.857 732.595 176.677 719.27 180.363C710.285 182.847 700.992 185.417 691.027 187.233C676.915 189.803 662.016 190.825 646.733 190.825C622.214 190.825 596.736 188.184 572.064 185.056C566.746 184.38 560.122 183.539 555.418 181.66C550.285 179.602 548.388 176.76 546.856 173.915L546.521 173.283C546.465 173.177 546.41 173.072 546.355 172.967C545.453 171.269 544.531 169.501 542.976 167.921C538.79 163.622 530.266 160.619 521.261 157.436C515.923 155.549 510.394 153.592 505.882 151.352C489.754 143.335 488.275 132.543 489.869 124.903C491.021 119.393 493.901 113.899 496.685 108.586C498.566 105.025 500.486 101.331 501.888 97.6762C507.226 83.6147 504.845 68.9636 494.995 55.3108C493.786 53.6445 492.461 51.9546 491.155 50.3197C486.912 44.9435 482.496 39.3786 482.074 33.6408C481.133 20.9312 498.739 10.0136 520.608 0H523.2ZM1393.48 49.6045C1410.55 51.1057 1426.94 52.2218 1440 50.0761V52.5677C1424.22 54.7135 1405.57 53.0786 1392.27 51.9074C1263.46 40.589 1156.93 41.8309 1066.58 55.7195C1019.65 62.9272 990.893 72.9801 981.062 85.6033C976.646 91.2782 976.243 97.4011 975.859 103.32C975.794 104.332 975.729 105.347 975.668 106.363L975.58 107.89C974.944 119.606 975.204 131.557 983.578 142.855C989.011 150.212 998.208 157.703 1011.69 165.752C1019.23 170.255 1028.68 175.231 1041.47 177.974C1052.64 180.379 1065.56 180.977 1078.92 181.425C1095.92 181.99 1113.14 182.352 1130.17 182.501C1139.62 182.58 1148.04 182.541 1155.61 181.212C1165.06 179.538 1172.03 175.954 1178.17 172.794L1253.24 134.17C1266.37 127.411 1281.27 119.747 1300.86 114.882C1318.21 110.559 1344.67 107.768 1366.85 112.877C1371.19 113.884 1375.1 115.133 1378.89 116.344C1382.4 117.476 1385.72 118.545 1389.37 119.425C1404.35 123.048 1422.05 122.962 1440 121.201V123.575C1412.52 126.184 1397.53 124.133 1386.45 121.453C1382.46 120.494 1378.83 119.331 1375.33 118.207C1371.55 116.996 1367.98 115.849 1364.03 114.937C1347.53 111.133 1323.92 111.903 1303.83 116.894C1285.15 121.539 1271.21 128.708 1257.73 135.64L1182.68 174.264C1176.42 177.479 1168.67 181.472 1157.89 183.374C1150.75 184.631 1143.01 184.883 1135.03 184.883C1133.38 184.883 1131.71 184.875 1130.04 184.859C1112.91 184.71 1095.55 184.341 1078.46 183.775C1064.49 183.303 1050.93 182.674 1038.8 180.065C1024.88 177.078 1014.89 171.827 1006.94 167.088C993.12 158.835 983.674 151.132 978.048 143.539C968.333 130.397 969.235 116.603 970.099 103.257C970.502 97.1732 970.906 90.8852 975.571 84.888C985.958 71.5417 1015.91 60.9857 1064.56 53.5109C1155.97 39.4572 1263.57 38.1839 1393.48 49.6045ZM350.323 0C347.021 8.07222 338.285 15.775 329.741 23.297C328.032 24.814 326.323 26.3153 324.672 27.8087C311.194 40.0546 305.03 50.9407 305.818 61.0958C306.317 67.2973 311.674 73.1845 316.858 78.883C321.139 83.599 325.574 88.48 327.322 93.5654C331.738 106.472 330.739 118.772 324.461 129.14C315.648 143.673 289.747 152.295 245.299 155.502C192.173 159.33 142.426 165.469 105.005 170.381C77.3952 174.013 53.4528 175.82 32.16 175.82C20.7168 175.82 10.0608 175.302 0 174.264V173.447C28.5312 176.441 62.112 175.199 104.429 169.635C141.888 164.706 191.712 158.56 244.954 154.724C288.576 151.58 313.978 143.146 322.598 128.951C328.819 118.686 329.798 106.479 325.421 93.6676C323.712 88.6765 319.315 83.8348 315.053 79.1581L314.038 78.0406C309.133 72.6274 304.365 67.0384 303.898 61.1194C303.091 50.8463 309.312 39.8423 322.925 27.4864C324.576 25.9852 326.285 24.4839 327.994 22.9669C328.52 22.5027 329.048 22.0378 329.575 21.5721L331.153 20.1728C338.495 13.6321 345.458 6.9394 348.365 0H350.323ZM573.754 0C553.344 9.18048 542.131 18.5339 540.365 27.8401C539.328 33.3736 541.67 38.9856 543.936 44.4169C544.397 45.5251 544.858 46.6334 545.299 47.7338C553.997 69.8361 551.674 92.9995 538.56 114.732C542.669 120.997 546.95 127.466 555.59 133.031C557.933 134.547 560.64 136.017 563.27 137.432C568.147 140.073 573.178 142.8 576.154 145.952C578.246 148.169 579.283 150.566 580.282 152.885C581.76 156.343 583.181 159.605 587.75 162.356C593.53 165.83 603.898 168.149 619.43 169.438C646.291 171.678 673.325 170.452 695.597 165.995C719.789 161.154 738.086 152.358 744.499 142.47C749.779 134.335 747.302 125.713 744.902 117.373C743.942 114.056 742.963 110.622 742.483 107.258C739.968 90.0206 750.72 72.4142 772.742 57.6845C777.926 54.2026 783.878 50.7756 789.638 47.4508L791.218 46.5396C791.745 46.2355 792.272 45.9309 792.798 45.6259L794.376 44.7094L795.947 43.7898C808.744 36.2662 820.6 28.3997 823.488 19.4063C825.504 13.1262 822.95 6.45306 816.269 0H818.323C824.928 6.49236 827.405 13.1891 825.389 19.5085C821.971 30.1667 806.323 39.1821 791.213 47.9067C785.472 51.2158 779.539 54.6427 774.374 58.0933C752.563 72.6893 741.907 90.1306 744.384 107.21C744.883 110.551 745.862 113.978 746.803 117.287C749.222 125.697 751.718 134.39 746.342 142.667C739.795 152.775 721.133 161.759 696.442 166.703C681.178 169.752 663.725 171.317 645.619 171.317C636.864 171.317 627.955 170.955 619.066 170.208C602.995 168.872 592.243 166.451 586.176 162.796C581.357 159.904 579.84 156.406 578.381 153.026C577.402 150.739 576.384 148.381 574.349 146.235C571.488 143.186 566.534 140.505 561.734 137.912C559.085 136.473 556.358 134.996 553.958 133.455C545.126 127.756 540.806 121.193 536.64 114.835L536.563 114.74L536.621 114.638C549.734 92.9838 552.077 69.8911 543.398 47.8595C542.976 46.7591 542.515 45.6587 542.054 44.5505C539.75 39.0721 537.389 33.405 538.445 27.7772C540.211 18.4789 551.194 9.14904 571.162 0H573.754ZM1085.89 64.3813C1134.39 57.8653 1224.67 45.7373 1257.66 73.153C1265.89 80.0069 1267.55 88.5586 1262.3 97.2439C1258.16 104.129 1249.94 111.117 1236.48 119.236C1223.4 127.128 1207.3 135.066 1185.79 144.223C1169.01 151.368 1154.19 156.933 1136.39 160.839C1122.11 163.975 1107.4 165.579 1093.5 165.579C1086.74 165.579 1080.19 165.201 1073.97 164.439C1055.16 162.136 1037.93 155.927 1026.7 147.399C1016.41 139.578 1011.69 130.743 1008.13 122.364C1002.57 109.254 999.398 94.2807 1018 82.6007C1034.53 72.2177 1064.68 67.2266 1085.89 64.3813ZM1255.93 73.4989C1223.67 46.7041 1134.43 58.6828 1086.49 65.128C1065.54 67.9418 1035.82 72.8543 1019.62 83.033C1001.36 94.4851 1004.52 109.27 1010.04 122.231C1013.57 130.547 1018.23 139.303 1028.39 147.021C1039.39 155.369 1056.19 161.444 1074.53 163.685C1092.83 165.925 1115.04 164.636 1135.47 160.148C1153.06 156.288 1167.76 150.771 1184.41 143.673C1205.84 134.555 1221.87 126.648 1234.91 118.796C1248.23 110.755 1256.35 103.846 1260.44 97.0553C1265.59 88.5508 1263.97 80.1877 1255.93 73.4989ZM53.3376 70.064C92.8128 62.5263 139.238 60.8678 184.09 65.4031C222.701 69.3095 260.774 74.78 277.766 88.2442C293.395 100.632 296.525 113.758 286.157 123.371C277.555 131.341 258.624 137.817 228.269 143.17C199.814 148.192 168.173 151.832 131.501 154.292C101.99 156.273 70.1376 157.444 31.296 157.986C28.3008 158.025 25.248 158.057 22.1376 158.057C14.8416 158.057 7.3152 157.907 0 157.467V156.673C10.3872 157.31 21.2544 157.341 31.2192 157.2C70.0032 156.658 101.76 155.487 131.194 153.514C167.693 151.069 199.2 147.446 227.52 142.455C257.395 137.173 276.019 130.83 284.41 123.056C294.547 113.656 291.418 100.781 276.058 88.6058C259.911 75.8124 224.036 70.3553 187.062 66.5171L184.774 66.2817L183.629 66.1655C139.219 61.6774 93.216 63.3123 54.144 70.7793C33.9264 74.6464 15.5328 80.1327 0 86.9002V85.7605C15.4176 79.1974 33.4848 73.8604 53.3376 70.064ZM829.44 61.8425C843.418 59.7517 857.818 60.4277 871.104 63.7918C907.718 73.0744 905.05 94.4851 903.091 110.119C902.918 111.557 902.726 112.956 902.592 114.308C901.786 122.042 900.154 130.948 890.765 138.737C880.704 147.092 862.003 152.681 843.13 152.979C842.573 152.995 842.035 152.995 841.478 152.995C823.046 152.995 804.384 148.106 793.555 140.38C782.63 132.606 780.538 123.473 779.942 116.391C779.77 114.308 779.674 112.28 779.674 110.307C779.674 98.2736 782.957 88.2757 789.658 79.8812C796.397 71.416 811.642 64.507 829.44 61.8425ZM870.106 64.4599C857.338 61.2215 843.494 60.5692 830.093 62.5813C812.832 65.1673 798.048 71.8876 791.482 80.1248C783.763 89.8084 780.614 101.661 781.862 116.359C782.458 123.355 784.512 132.362 795.206 139.994C806.016 147.697 824.774 152.492 843.053 152.201C861.235 151.91 879.283 146.487 889.037 138.391C898.253 130.743 899.885 121.932 900.672 114.269C900.806 112.925 900.998 111.518 901.171 110.071C903.11 94.6344 905.76 73.4989 870.106 64.4599ZM1094.52 76.187C1134.01 70.2605 1190.13 64.2241 1221.33 80.1877C1228.34 83.764 1231.85 87.7176 1231.85 91.9777C1231.85 94.0449 1231.03 96.1907 1229.38 98.3993C1224.54 104.884 1214.76 110.983 1205.84 116.092C1195.14 122.199 1182.97 128.181 1168.61 134.375C1158.07 138.926 1146.41 143.563 1132.63 146.683C1121.8 149.143 1110.2 150.425 1099.35 150.425C1094.9 150.425 1090.56 150.212 1086.47 149.772C1072.13 148.24 1059.01 143.846 1050.51 137.715C1042.46 131.875 1039.07 125.131 1036.8 119.291C1036.53 118.639 1036.3 117.979 1036.07 117.318C1033.48 109.733 1031.6 98.6509 1045.25 90.0599C1054.56 84.2042 1070.21 79.7947 1094.52 76.187ZM1164.1 70.7479C1140.6 70.7479 1115.64 73.8526 1095.19 76.9258C1071.28 80.4707 1055.92 84.778 1046.86 90.4843C1033.56 98.8631 1035.42 109.749 1037.97 117.208C1038.2 117.869 1038.43 118.521 1038.68 119.173C1040.93 124.935 1044.29 131.6 1052.18 137.322C1060.44 143.28 1073.11 147.54 1086.95 149.01C1100.54 150.464 1116.86 149.371 1131.69 145.999C1145.24 142.926 1156.78 138.336 1167.23 133.832C1181.53 127.67 1193.64 121.712 1204.28 115.628C1213.11 110.574 1222.79 104.546 1227.55 98.1714C1232.41 91.6633 1229.82 85.7762 1219.83 80.675C1212.61 76.9808 1203.99 74.4971 1194.51 72.9408C1185.04 71.3845 1174.71 70.7479 1164.1 70.7479ZM77.0688 77.2717C106.464 72.6814 140.218 71.864 172.109 74.9765C174.086 75.173 176.064 75.3695 178.061 75.5739C204.48 78.2856 233.299 82.475 246.682 92.9445C259.142 102.636 261.35 113.011 252.595 120.69C245.338 127.01 229.69 132.174 204.787 136.465C182.381 140.332 156.806 143.233 128.755 145.088C114.24 146.055 99.0528 146.762 82.368 147.257C72.1344 147.556 61.5744 147.768 50.0928 147.909C48.0768 147.933 46.0224 147.949 43.9296 147.949C28.5696 147.949 11.6352 147.171 0 143.39V142.36C12.672 146.896 33.0432 147.32 50.0352 147.123C61.4976 146.982 72.0192 146.77 82.2144 146.471C98.8608 145.976 113.99 145.276 128.448 144.317C156.346 142.462 181.786 139.586 204.038 135.742C228.499 131.529 243.802 126.491 250.848 120.36C259.354 112.901 257.165 102.785 244.973 93.3061C238.464 88.2049 228.115 84.6365 216.154 82.0034C204.173 79.3703 190.598 77.6725 177.6 76.3363C175.603 76.132 173.626 75.9355 171.667 75.739C159.072 74.5128 146.189 73.9076 133.402 73.9076C114.182 73.9076 95.1936 75.2831 77.7408 78.0105C74.8224 78.4664 71.9232 78.9616 69.1008 79.496C46.5792 83.7169 26.8992 90.3743 12.2112 98.7373C10.1568 99.9006 8.1792 101.111 6.3552 102.321C4.032 103.862 1.92 105.426 0 107.022V105.3C1.4592 104.161 3.0336 103.029 4.7232 101.913C6.5664 100.679 8.5632 99.4526 10.656 98.2736C25.536 89.8005 45.4656 83.0566 68.3136 78.7808C71.1552 78.2384 74.112 77.7354 77.0688 77.2717ZM598.061 0C582.586 7.77354 574.003 15.5078 572.486 23.0298C571.584 27.51 573.197 32.0688 574.733 36.4704C575.059 37.4057 575.386 38.3332 575.693 39.2607C581.53 57.1029 579.091 76.0062 568.646 93.9191C570.24 96.7173 572.064 99.877 574.56 102.864C576.48 105.175 578.611 107.155 581.088 108.916C582.931 110.237 585.101 111.526 587.194 112.767C590.784 114.913 594.509 117.122 596.832 119.621C598.426 121.327 599.366 123.135 600.269 124.888C601.747 127.772 603.149 130.492 607.238 132.748C612.058 135.428 620.621 137.228 632.659 138.108C654.106 139.68 675.398 138.438 692.602 134.61C711.168 130.476 725.338 123.048 730.483 114.74C734.573 108.232 732.96 101.363 731.386 94.713C730.752 92.017 730.099 89.2346 729.83 86.4993C728.448 72.815 737.011 58.6435 753.946 46.6098C757.786 43.8824 762.106 41.1785 766.31 38.5612L767.007 38.126L768.4 37.2538C779.313 30.4104 790.05 23.298 792.288 15.1855C793.651 10.273 791.731 5.06184 786.816 0H788.87C793.709 5.09328 795.571 10.328 794.208 15.2798C792.111 22.8574 782.843 29.5222 772.827 35.8993L771.425 36.7873C770.957 37.0827 770.487 37.3776 770.018 37.6719L768.608 38.5536C768.373 38.7003 768.139 38.847 767.904 38.9935C763.738 41.5951 759.418 44.2911 755.616 47.0028C738.854 58.9107 730.387 72.9329 731.75 86.4679C732.019 89.1796 732.672 91.9541 733.286 94.6344C734.88 101.355 736.512 108.295 732.346 114.937C727.066 123.449 712.55 131.066 693.523 135.302C680.89 138.108 666.125 139.554 650.707 139.554C644.64 139.554 638.496 139.334 632.314 138.878C619.776 137.967 610.829 136.064 605.683 133.219C601.363 130.822 599.846 127.89 598.387 125.053C597.504 123.331 596.582 121.547 595.046 119.896C592.8 117.491 589.152 115.314 585.6 113.215C583.488 111.958 581.299 110.653 579.418 109.309C576.883 107.501 574.694 105.473 572.736 103.123C570.202 100.066 568.358 96.8509 566.726 94.0135L566.669 93.9191L566.726 93.8327C577.152 75.9748 579.59 57.1422 573.792 39.3629C573.485 38.4354 573.158 37.5158 572.832 36.5883C571.277 32.1395 569.664 27.5414 570.566 22.9669C572.083 15.4449 580.493 7.73424 595.603 0H598.061ZM89.7792 86.405C111.706 83.0645 136.685 82.4042 160.128 84.55C161.568 84.6836 163.046 84.8251 164.506 84.9666C182.88 86.7508 205.286 89.8005 215.597 97.6369C224.89 104.711 226.176 112.327 219.014 118.026C213.158 122.687 200.813 126.522 181.306 129.761C164.621 132.527 146.016 134.595 126.01 135.892C115.526 136.575 104.179 137.086 92.3136 137.416C84.8832 137.621 76.992 137.762 68.9088 137.833C67.8912 137.841 66.8736 137.841 65.8368 137.841C52.0704 137.841 36.1728 137.094 27.6288 132.598C23.52 130.437 21.216 127.678 20.7552 124.4C20.6784 123.795 20.64 123.158 20.6592 122.522C20.9088 116.312 25.9968 109.946 35.3472 104.129C36.7872 103.233 38.3232 102.345 39.8976 101.504C51.2256 95.4283 66.2208 90.5865 83.2896 87.4897C85.4016 87.1045 87.5904 86.7351 89.7792 86.405ZM132.576 84.102C118.099 84.102 103.699 85.1238 90.4512 87.1438C88.3008 87.4661 86.1504 87.8276 84.0576 88.2049C67.296 91.2467 52.5504 96.0099 41.4144 101.976C39.8784 102.809 38.3616 103.681 36.96 104.562C27.8016 110.26 22.8288 116.469 22.5792 122.53C22.56 123.158 22.5984 123.764 22.6752 124.353C23.0976 127.473 25.2864 130.083 29.1456 132.111C37.8048 136.67 54.912 137.141 68.8704 137.047C76.9344 136.976 84.7872 136.835 92.1984 136.63C103.987 136.308 115.277 135.797 125.722 135.113C145.574 133.824 164.026 131.781 180.576 129.038C199.642 125.87 211.661 122.152 217.306 117.664C224.179 112.201 222.912 104.852 213.907 98.0142C208.934 94.2335 200.966 91.6004 192 89.6905C183.014 87.7805 173.05 86.6015 164.064 85.729C162.605 85.5875 161.146 85.4461 159.706 85.3203C150.797 84.5029 141.677 84.102 132.576 84.102ZM1103.12 88.0006C1128.19 83.4339 1172.7 80.4314 1187.62 86.908C1197.72 90.9716 1201.84 94.0449 1196.45 99.5705C1191.84 104.286 1182.74 109.01 1175.44 112.807L1175.17 112.948C1167.96 116.697 1160.08 120.698 1151.42 124.534C1144.86 127.434 1137.58 130.421 1128.86 132.527C1121.38 134.359 1113.08 135.333 1105.31 135.333C1103.16 135.333 1101.04 135.255 1098.99 135.106C1089.04 134.359 1080.06 131.789 1074.34 128.032C1068.56 124.243 1066.54 119.731 1065.45 116.218C1065.31 115.801 1065.2 115.377 1065.08 114.945C1063.2 107.564 1065.64 101.858 1072.51 97.5112C1080.35 92.5436 1093.73 89.7062 1103.12 88.0006ZM1157.49 83.992C1139.81 83.992 1118.67 86.0277 1103.9 88.7158C1089.33 91.3646 1079.88 94.2964 1074.12 97.9356C1067.5 102.133 1065.16 107.666 1067 114.866C1067.1 115.283 1067.23 115.707 1067.35 116.124C1068.42 119.551 1070.38 123.96 1075.97 127.615C1081.4 131.183 1089.93 133.628 1099.33 134.335C1108.3 135.003 1118.71 134.099 1127.88 131.852C1136.39 129.792 1143.55 126.86 1150.02 123.999C1158.62 120.187 1166.48 116.202 1173.66 112.461L1173.93 112.319C1181.16 108.562 1190.15 103.886 1194.66 99.2797C1199.19 94.6423 1197.24 91.8834 1186.25 87.4661L1186.23 87.4582C1180.57 84.9902 1169.88 83.992 1157.49 83.992ZM825.024 89.0617C831.955 84.9666 842.016 83.033 854.938 83.3396C863.827 83.5439 870.278 85.226 874.118 88.3307C887.232 98.9417 865.92 122.679 856.474 128.613C854.246 130.012 851.674 131.403 847.91 132.079C846.336 132.362 844.608 132.496 842.822 132.496C839.213 132.496 835.392 131.93 832.205 130.853C827.808 129.376 825.158 127.269 823.162 125.414C820.762 123.19 818.765 120.384 817.306 117.318C815.846 114.253 814.944 110.936 814.733 107.698C814.406 102.172 815.904 94.4536 825.024 89.0617ZM852.384 84.0941C841.363 84.0941 832.685 85.9098 826.598 89.5097C811.661 98.3286 815.635 116.477 824.909 125.092C826.829 126.868 829.325 128.873 833.414 130.248C837.619 131.663 843.014 132.103 847.123 131.356C850.445 130.767 852.806 129.486 854.861 128.189C865.632 121.421 884.333 98.3286 872.41 88.6844C868.896 85.8469 862.982 84.3142 854.822 84.1256C853.997 84.102 853.19 84.0941 852.384 84.0941ZM102.509 95.5304C116.966 93.4475 133.171 92.9524 148.128 94.1235C149.05 94.1942 149.99 94.2728 150.931 94.3514C168.326 95.8291 179.002 98.3679 184.493 102.329C187.795 104.711 189.446 107.155 189.446 109.482C189.446 111.573 188.122 113.577 185.434 115.361C180.864 118.387 171.84 120.903 157.805 123.056C146.976 124.722 135.36 125.941 123.264 126.695C116.582 127.104 109.517 127.403 102.278 127.576C97.728 127.686 92.9472 127.741 87.6864 127.756H87.2448C74.5152 127.756 66.3744 126.719 61.6512 124.51C58.5984 123.08 56.6784 121.303 56.1216 119.362C56.0064 118.969 55.9296 118.56 55.9104 118.144C55.584 114.19 59.0784 110.111 65.9904 106.338C67.008 105.78 68.0832 105.23 69.1584 104.719C76.8576 101.064 86.9184 98.1164 98.2656 96.1985C99.6672 95.9627 101.069 95.7427 102.509 95.5304ZM131.904 94.2886C122.131 94.2886 112.282 94.9567 103.142 96.2771C101.741 96.4736 100.358 96.6937 98.9952 96.9295C87.9168 98.8002 78.1056 101.669 70.6176 105.23C69.5616 105.733 68.5248 106.259 67.5264 106.81C60.8832 110.433 57.5232 114.347 57.8304 118.12C57.8496 118.505 57.9264 118.883 58.0416 119.268C58.5408 121.052 60.3072 122.687 63.0912 123.992C67.488 126.043 75.36 127.01 87.6864 126.97C92.9088 126.955 97.6512 126.9 102.163 126.79C109.363 126.625 116.352 126.326 122.976 125.917C134.938 125.178 146.438 123.968 157.133 122.325C170.746 120.234 179.462 117.821 183.782 114.952C189.082 111.439 188.736 106.975 182.842 102.722C180.23 100.844 176.371 99.3032 171.034 98.0456C165.734 96.7959 158.957 95.837 150.547 95.1217C149.606 95.0431 148.685 94.9645 147.763 94.8938C142.579 94.4851 137.261 94.2886 131.904 94.2886ZM1148.1 94.2493C1158.11 93.9113 1163.87 94.5479 1165.69 96.1828C1169.16 99.2718 1156.9 104.813 1144.45 109.828C1141.79 110.905 1139.35 112.131 1137 113.318C1133.45 115.102 1129.79 116.941 1125.18 118.356C1120.95 119.653 1115.42 120.454 1110.18 120.454C1105.59 120.454 1101.24 119.841 1098.22 118.387C1095.38 117.028 1094 115.063 1094.09 112.539C1094.25 109.395 1096.76 106.762 1100.29 104.617C1103.81 102.471 1108.32 100.812 1112.43 99.5941C1122.28 96.6701 1135.62 94.6737 1148.1 94.2493ZM1163.94 96.5129C1162.54 95.2475 1157.13 94.7366 1148.26 95.0353C1112.72 96.2378 1096.32 106.008 1096.01 112.555C1095.92 114.874 1097.15 116.666 1099.68 117.876C1105.44 120.635 1116.81 119.944 1124.03 117.727C1128.44 116.375 1132.03 114.567 1135.51 112.822C1137.89 111.62 1140.36 110.378 1143.11 109.27C1149.73 106.605 1167.32 99.5155 1163.94 96.5129ZM115.277 104.656C122.861 103.768 130.675 103.445 137.299 103.736C144.864 104.082 150.432 105.206 153.389 107.014C156.672 109.01 156.096 110.999 151.718 112.752C147.206 114.567 139.738 115.715 134.266 116.359C127.277 117.185 119.232 117.688 112.205 117.743H110.995C104.083 117.743 98.7264 117.295 95.8272 116.469C93.5808 115.841 92.1792 115.157 91.5456 114.387C89.856 112.39 91.6608 110.354 96.7296 108.499C101.088 106.912 107.674 105.552 115.277 104.656ZM132.307 104.42C127.104 104.42 121.382 104.758 115.795 105.41C108.461 106.275 102.144 107.58 97.9968 109.089C94.9056 110.221 91.584 112.013 93.3504 114.135C93.8496 114.732 95.0208 115.29 96.9216 115.825C99.6672 116.603 105.082 117.004 112.166 116.957C119.04 116.902 126.912 116.414 133.728 115.605C141.274 114.717 147.034 113.538 150.374 112.194C154.118 110.692 154.579 109.144 151.795 107.446C148.474 105.426 141.965 104.742 137.088 104.522C135.552 104.452 133.958 104.42 132.307 104.42ZM1320.69 58.5649C1334.67 58.6828 1348.72 59.4845 1362.32 60.2705C1370.48 60.7342 1378.92 61.2215 1387.24 61.5438C1408.34 62.377 1425.48 61.9604 1440 60.2155V61.0329C1425.35 62.7542 1408.17 63.163 1387.07 62.3298C1378.69 61.9997 1370.23 61.5124 1362.05 61.0486C1348.51 60.2705 1334.52 59.4688 1320.65 59.3509C1314.36 59.3037 1307.29 59.5002 1303.07 61.3787C1297.77 63.7132 1299.74 67.4074 1300.84 68.885C1301.57 69.8833 1302.53 70.8736 1303.47 71.8404C1305.02 73.436 1306.62 75.0866 1307.27 76.8315C1308.02 78.8358 1307.48 80.8715 1306.96 82.8365C1306.71 83.7719 1306.46 84.7465 1306.35 85.6976C1306.12 87.7255 1306.64 91.4275 1312.74 93.3925C1318.2 95.1374 1325.3 94.8388 1332.84 94.5165C1336.95 94.3436 1341.22 94.1549 1345.27 94.3279C1355.12 94.7444 1363.24 97.2282 1371.09 99.6255C1373.66 100.404 1376.31 101.221 1378.96 101.936C1396.74 106.739 1419.36 108.201 1440 106.228V107.037C1434.05 107.588 1427.96 107.863 1421.86 107.863C1406.36 107.863 1390.89 106.094 1377.91 102.589C1375.22 101.858 1372.53 101.048 1369.96 100.254C1362.3 97.9199 1354.39 95.5069 1345.08 95.1139C1341.22 94.9488 1337.07 95.1296 1333.04 95.2946C1325.45 95.6248 1317.62 95.9549 1311.55 94.0056C1304.77 91.8284 1304.18 87.8434 1304.43 85.6583C1304.54 84.6836 1304.81 83.7011 1305.06 82.7501C1305.56 80.8322 1306.1 78.8515 1305.37 76.9494C1304.76 75.2909 1303.2 73.6875 1301.68 72.1312C1300.74 71.1487 1299.76 70.1426 1299 69.113C1297.8 67.5017 1295.69 63.4852 1301.64 60.8443C1306.41 58.7456 1313.93 58.5177 1320.69 58.5649ZM622.349 0C611.674 6.4452 605.875 12.4267 604.608 18.2273C603.859 21.6543 604.723 25.1363 605.53 28.5082C605.722 29.2706 605.914 30.0252 606.067 30.7876C609.101 44.5033 606.643 58.7456 598.733 73.1137C599.846 75.6053 600.883 77.8533 602.362 80.062C603.571 81.8619 604.954 83.4182 606.586 84.8094C607.949 85.9727 609.581 87.1124 611.174 88.2128C613.478 89.8241 615.878 91.4825 617.53 93.2903C618.586 94.4379 619.334 95.6248 620.083 96.7723C621.6 99.1303 623.021 101.355 626.688 103.131C630.662 105.065 637.114 106.283 645.85 106.77C661.632 107.666 677.568 106.377 689.587 103.225C702.662 99.7984 712.474 93.8877 716.486 87.0102C719.328 82.1291 718.579 77.0044 717.85 72.0448C717.542 69.9776 717.216 67.8397 717.158 65.741C716.909 55.4759 723.11 45.0299 735.149 35.5351C737.606 33.6015 740.314 31.6679 742.925 29.7973L743.529 29.3661L744.739 28.5015C752.39 23.0146 759.808 17.3177 761.107 10.9726C761.837 7.41198 760.493 3.66276 757.286 0H759.322C762.451 3.68634 763.738 7.45128 763.027 11.0354C761.587 18.0544 752.947 24.2245 744.595 30.1903C741.984 32.0531 739.296 33.9788 736.858 35.8966C724.973 45.2815 718.829 55.5938 719.078 65.7332C719.136 67.8082 719.462 69.9383 719.75 71.9976C720.499 77.0123 721.267 82.1999 718.349 87.191C714.221 94.2728 704.122 100.356 690.624 103.893C680.794 106.464 668.448 107.839 655.661 107.839C652.32 107.839 648.96 107.745 645.6 107.548C636.365 107.037 629.51 105.725 625.229 103.642C621.274 101.724 619.718 99.3111 618.221 96.9688C617.491 95.8448 616.742 94.6737 615.725 93.5654C614.131 91.8205 611.789 90.1935 609.523 88.6136C607.91 87.4975 606.259 86.3421 604.858 85.1474C603.168 83.7169 601.747 82.1213 600.499 80.2742C598.982 78.0105 597.926 75.7154 596.813 73.1766L596.774 73.098L596.813 73.0194C604.704 58.7063 607.181 44.519 604.166 30.8584L603.629 28.5868C602.803 25.1756 601.939 21.6543 602.688 18.1566C603.955 12.3481 609.638 6.39018 620.045 0H622.349ZM1440 70.4492V71.2666C1417.86 73.7975 1394.04 73.0037 1372.7 72.2884C1363.99 71.9976 1351.85 71.9976 1347.23 75.3617C1343.75 77.9005 1346.76 81.2174 1351.37 83.0488C1356.42 85.0609 1363.55 86.0513 1370.5 86.8294C1394.76 89.5333 1418.4 90.1856 1440 88.8023V89.5961C1432.67 90.0677 1425.14 90.2957 1417.42 90.2957C1402.16 90.2957 1386.2 89.3918 1370 87.584C1362.8 86.7823 1355.4 85.7526 1350.03 83.6147C1344.79 81.5239 1341.56 77.8847 1345.56 74.9765C1350.72 71.2195 1363.6 71.1959 1372.86 71.5103C1394.21 72.2255 1418.05 73.0194 1440 70.4492ZM646.502 0C642.355 3.7728 637.958 8.4888 636.73 13.4249C636.154 15.7672 636.269 18.1487 636.384 20.4517L636.461 22.3303C636.71 31.5107 634.214 41.32 628.819 52.3162C629.146 53.9275 629.53 55.6409 630.163 57.2837C630.662 58.557 631.296 59.681 632.122 60.7342C633.024 61.8975 634.253 63.0529 635.424 64.169C636.384 65.0729 637.382 66.0083 638.227 66.9593C638.611 67.3995 638.957 67.8318 639.322 68.2641C640.954 70.2527 642.509 72.1391 646.099 73.4989C649.939 74.9608 655.238 75.3617 659.021 75.4403C669.178 75.6761 679.45 74.332 686.515 71.864C694.234 69.1759 699.61 64.9393 702.49 59.288C704.122 56.0732 704.198 52.7249 704.256 49.4866C704.294 48.0089 704.333 46.4762 704.506 44.9671C705.312 38.4118 709.402 31.3221 716.333 24.4839C717.35 23.4857 718.406 22.4875 719.443 21.4971C724.416 16.8125 729.542 11.9708 729.907 6.76746C730.061 4.52736 729.312 2.24796 727.68 0H729.658C731.251 2.25582 731.981 4.54308 731.827 6.79104C731.462 12.1437 726.24 17.0641 721.21 21.8115C720.173 22.8019 719.117 23.7922 718.118 24.7826C711.264 31.5422 707.213 38.5376 706.426 45.0064C706.253 46.4998 706.214 48.0246 706.176 49.4944C706.118 52.772 706.042 56.1518 704.352 59.4452C701.395 65.2773 695.808 69.6553 687.763 72.4613C680.794 74.8979 671.309 76.2499 661.402 76.2499C660.576 76.2499 659.75 76.242 658.925 76.2263C654.835 76.1398 649.056 75.6918 644.794 74.0805C640.838 72.5792 639.226 70.6064 637.498 68.5156C637.152 68.0912 636.787 67.6589 636.422 67.2266C635.597 66.2991 634.618 65.3716 633.677 64.4756C632.467 63.3437 631.219 62.1726 630.278 60.97C629.434 59.8853 628.781 58.7221 628.262 57.4094C627.61 55.7195 627.226 53.9668 626.899 52.324L626.88 52.269L626.918 52.214C632.294 41.2493 634.79 31.4793 634.541 22.3381C634.522 21.7172 634.483 21.0962 634.464 20.4674C634.349 18.1409 634.234 15.7357 634.829 13.3384C636.038 8.44164 640.282 3.7728 644.371 0H646.502ZM313.613 0C314.573 2.35014 314.342 4.92822 312.883 7.57704C310.579 11.7821 305.683 15.6807 300.941 19.4535L299.27 20.7976C291.149 27.3135 283.814 34.081 277.459 40.9113L277.19 41.1943C273.619 45.0535 269.914 49.0385 261.907 51.5459C253.67 54.124 242.842 54.517 232.378 54.5641C213.504 54.6349 194.419 53.8803 175.949 53.1493C154.118 52.2847 131.539 51.3887 109.325 51.8681C70.9056 52.7013 32.6016 57.8968 0 66.472V65.5288C32.64 57.0479 70.8672 51.9153 109.21 51.0821C131.578 50.6027 154.234 51.4987 176.141 52.3633C194.554 53.0943 213.6 53.8489 232.358 53.7781C242.496 53.7388 252.96 53.3615 260.736 50.9249C268.301 48.5512 271.91 44.6684 275.405 40.9192L275.674 40.6283C282.048 33.7744 289.402 26.9834 297.562 20.436L299.232 19.0919C303.917 15.3663 308.755 11.5149 311.021 7.40412C312.442 4.80246 312.634 2.2794 311.654 0H313.613ZM860.064 0C863.731 10.3673 857.818 22.008 842.88 33.0199L841.843 33.7744C839.366 35.5822 836.813 37.4372 835.757 39.4493C834.432 41.941 836.026 44.3933 839.77 45.6902C844.416 47.2936 850.714 47.0185 857.376 46.7277C861.293 46.5626 865.325 46.3819 869.146 46.5941C874.618 46.9006 879.514 48.0167 884.275 49.1014C889.248 50.2411 893.952 51.3101 899.27 51.538C911.962 52.0804 922.08 47.4823 925.843 45.4858C928.339 44.1496 930.624 42.6955 932.832 41.2886C936.461 38.9699 940.205 36.5804 945.101 34.5997C949.421 32.8627 954.547 31.4793 959.501 30.151C963.494 29.0741 967.622 27.9659 971.27 26.6768C989.126 20.3653 994.982 10.328 998.112 0H1000.03C996.864 10.5245 990.931 20.774 972.518 27.2742C968.774 28.5947 964.608 29.7187 960.557 30.8033C955.68 32.116 950.63 33.4757 946.445 35.1656C941.702 37.0756 938.016 39.4336 934.445 41.713C932.218 43.1357 929.914 44.5976 927.36 45.9653C923.635 47.9539 913.939 52.3633 901.363 52.3633C900.614 52.3633 899.846 52.3476 899.078 52.3162C893.357 52.0725 888.25 50.9092 883.334 49.7852C878.746 48.7399 874.003 47.663 868.877 47.3722C865.286 47.1757 861.37 47.3486 857.587 47.5137C850.81 47.8045 843.821 48.1111 838.541 46.2875C833.338 44.4876 832.723 41.4929 833.875 39.2843C834.989 37.1621 837.619 35.2442 840.173 33.3893L841.19 32.6347C855.974 21.7329 861.811 10.2259 858.125 0H860.064ZM275.136 0C277.306 3.08898 277.978 6.54738 277.037 10.1551C275.52 15.8851 270.221 21.3635 265.248 25.9694C260.736 30.1274 255.149 34.8434 245.626 38.1524C237.005 41.1471 224.89 42.9942 210.586 43.4894C199.968 43.8509 189.197 43.4972 178.771 43.1593C176.89 43.0964 174.989 43.0335 173.107 42.9706C139.066 41.9252 104.621 42.2396 70.752 43.8902C49.056 44.9513 22.8096 46.8299 0 51.8053V50.9249C22.8672 46.0203 48.9216 44.1653 70.5216 43.1121C104.525 41.4536 139.085 41.1392 173.242 42.1925C175.142 42.2475 177.024 42.3104 178.925 42.3733C189.274 42.7112 199.968 43.0649 210.432 42.7034C224.314 42.2239 236.064 40.4397 244.378 37.5551C253.594 34.3482 259.066 29.7265 263.482 25.6472C268.416 21.1041 273.638 15.6964 275.136 10.0687C276.077 6.47664 275.366 3.04968 273.12 0H275.136ZM670.406 0C670.291 6.97968 666.95 13.9201 663.686 20.6561C661.478 25.207 659.213 29.9073 657.946 34.5683C657.197 37.3664 657.158 42.3025 665.338 43.8352C671.981 45.085 679.872 43.12 683.347 40.5733C686.458 38.3175 687.245 35.6294 688.032 33.0277C688.166 32.5483 688.32 32.0609 688.474 31.5815C689.587 28.186 691.507 24.7983 693.37 21.5207C694.848 18.8954 696.403 16.1759 697.498 13.4799C699.629 8.30016 699.725 3.84354 697.728 0H699.686C701.645 3.90642 701.549 8.40234 699.398 13.6135C698.285 16.3331 696.73 19.0605 695.232 21.7015C693.389 24.9634 691.469 28.3274 690.374 31.6837C690.221 32.1631 690.067 32.6426 689.933 33.122C689.126 35.8023 688.32 38.569 685.018 40.9585C681.965 43.1828 675.84 45.0064 669.658 45.0064C667.93 45.0064 666.202 44.8649 664.55 44.5505C655.258 42.8056 655.238 37.4922 656.045 34.4818C657.312 29.7894 659.597 25.0655 661.786 20.5067C665.05 13.81 668.371 6.90108 668.486 0H670.406ZM1083.71 0C1082.8 8.33946 1079.25 16.5689 1073.11 24.5861C1070.63 27.8008 1068.44 31.4164 1073.55 33.6329C1077.62 35.3936 1084.51 35.3621 1090.04 35.1421C1102.14 34.6547 1114.21 33.4757 1125.87 32.3439C1130.8 31.8644 1135.91 31.3614 1140.96 30.9212C1211.37 24.7983 1283.1 28.3825 1356.52 32.9334C1382.11 34.5211 1412.14 36.3839 1440 34.4268V35.2285C1431.48 35.8259 1422.74 36.0617 1414 36.0617C1394.05 36.0617 1374.09 34.8198 1356.23 33.7115C1282.98 29.1685 1211.44 25.5922 1141.36 31.6915C1136.33 32.1317 1131.24 32.6269 1126.31 33.1063C1114.58 34.246 1102.46 35.425 1090.23 35.9202C1084.72 36.1403 1076.85 36.2032 1072.15 34.1674C1066.33 31.6444 1068.65 27.7772 1071.28 24.3503C1077.35 16.4195 1080.86 8.253 1081.77 0H1083.71ZM895.373 0C898.368 9.20406 895.392 18.8011 886.79 27.3842C885.965 28.2017 885.197 28.9877 885.408 29.7422C885.792 31.157 889.632 32.0609 893.107 32.1238C898.714 32.2103 903.821 30.7719 908.966 29.1606L925.517 23.9494C929.894 22.5661 934.848 21.0098 937.824 18.9505C940.339 17.2055 941.395 15.1619 942.413 13.1812L949.19 0H951.149L944.294 13.3463C943.238 15.382 942.163 17.4964 939.475 19.3513C936.326 21.5364 931.2 23.1477 926.688 24.5704L910.118 29.7815C904.877 31.4321 899.654 32.9098 893.645 32.9098H893.03C888.749 32.8391 884.006 31.6679 883.488 29.8287C883.219 28.8698 884.141 27.958 884.966 27.1484C893.51 18.6125 896.448 9.10188 893.453 0H895.373ZM234.163 0C236.544 4.13436 236.026 9.1569 232.474 14.1323C230.784 16.506 228.538 18.6911 225.85 20.5932C223.162 22.5032 220.032 24.1302 216.614 25.3878C204.346 29.9073 187.661 30.3946 171.533 30.8662C168.691 30.9527 165.869 31.0313 163.104 31.1335C140.102 32.0138 117.658 32.5011 96.4032 32.5954C92.4096 32.619 88.2624 32.6662 84.0192 32.7133C78.2016 32.7762 72.2112 32.8469 66.1632 32.8469C47.5968 32.8469 28.5696 32.2103 13.1712 28.9169C8.2176 27.8637 3.7824 26.4568 0 24.7983V23.6193C3.9168 25.4978 8.6784 27.0777 14.0544 28.2253C34.0224 32.4854 60.5568 32.1867 83.9616 31.9273C88.224 31.8802 92.3904 31.833 96.384 31.8094C117.6 31.7151 139.987 31.2278 162.931 30.3553C165.696 30.2453 168.538 30.1667 171.398 30.0802C172.638 30.0445 173.88 30.0086 175.124 29.9707L176.989 29.9121C190.982 29.4581 204.926 28.6344 215.328 24.8062C221.914 22.3774 227.347 18.5103 230.63 13.9122C234.144 8.99184 234.624 4.03218 232.205 0H234.163ZM73.6512 0C71.4327 0.141966 69.1781 0.294518 66.9327 0.469859L65.8111 0.559485C65.2508 0.605304 64.6916 0.652674 64.1342 0.701787L63.0219 0.802391C48.5982 2.14191 35.6873 4.74501 36.768 11.9629C37.2864 15.4606 41.76 18.6518 48.6912 20.4832C52.0512 21.3713 56.1792 22.0316 60.96 22.4482C71.9232 23.3914 84.1344 23.1713 94.9248 22.9748C96.48 22.9512 98.016 22.9198 99.5136 22.8962C111.302 22.7233 123.283 22.3224 134.861 21.9294L141.062 21.725C141.83 21.7015 142.598 21.6779 143.366 21.6622L145.805 21.5993C155.654 21.3556 165.85 21.0962 174.086 19.0369C179.885 17.5828 184.512 15.3427 187.104 12.7332C191.29 8.49666 189.178 4.15008 181.555 1.38336C180.154 0.88032 178.598 0.41658 176.87 0H180.346C181.229 0.25152 182.054 0.51876 182.822 0.80172C191.078 3.78852 193.382 8.47308 188.87 13.024C186.125 15.7907 181.229 18.1645 175.085 19.705C166.445 21.8744 156.019 22.1338 145.92 22.3853L143.501 22.4403L141.216 22.511L135.034 22.7154C123.418 23.1084 111.418 23.5093 99.5904 23.6822C98.0928 23.7058 96.5568 23.7372 95.0208 23.7608C90.3936 23.8472 85.4976 23.9337 80.5632 23.9337C73.8432 23.9337 67.008 23.7686 60.5568 23.2106C55.5456 22.7783 51.2064 22.0866 47.6544 21.1434C40.2048 19.1784 35.4048 15.7593 34.848 12.0101C33.6576 4.1658 48 1.38336 63.0336 0H73.6512ZM1120.86 0C1121.28 4.5588 1118.96 9.1569 1114.08 13.252L1113.79 13.4956C1112.87 14.258 1111.93 15.044 1111.87 15.8458C1111.72 17.6143 1115.9 19.0212 1120.05 19.3592C1124.41 19.7207 1129.02 19.2413 1133.45 18.7775L1133.66 18.754C1179.67 13.9515 1227.01 12.073 1274.42 13.1812C1288.59 13.5113 1302.95 14.1166 1316.83 14.7061C1335.28 15.4842 1354.37 16.2938 1373.2 16.451C1398.68 16.6789 1420.78 15.6335 1440 13.2834V14.1008C1420.72 16.4274 1398.6 17.4649 1373.16 17.237C1354.25 17.0719 1335.13 16.2702 1316.64 15.4842C1302.78 14.9026 1288.44 14.2895 1274.3 13.9594C1227.11 12.8668 1179.96 14.7296 1134.14 19.5164L1133.93 19.54C1130.46 19.9015 1126.89 20.2709 1123.3 20.2709C1122.09 20.2709 1120.88 20.2316 1119.67 20.1295C1114.75 19.7286 1109.76 18.0073 1109.95 15.8143C1110.03 14.8475 1111.07 13.9829 1112.06 13.1498L1112.37 12.9061C1117.11 8.91324 1119.38 4.43304 1118.96 0H1120.86ZM124.186 6.30372C128.141 6.30372 132.134 6.39804 136.09 6.57882C144.403 6.9561 147.264 8.59884 147.168 10.0136C147.053 11.8057 142.138 13.8257 133.267 14.038C130.752 14.1008 128.237 14.0301 125.798 13.9672C123.955 13.9201 122.074 13.8729 120.211 13.8808C116.083 13.8886 111.859 14.1794 107.77 14.4545C103.526 14.7375 99.2064 15.0283 94.9056 15.0283C92.256 15.0283 89.6064 14.9183 86.976 14.6196C84.4224 14.3366 82.752 13.8886 81.9072 13.252C80.736 12.3874 81.2544 11.1926 83.136 10.3438C84.7488 9.60492 87.0336 9.20406 89.0304 8.8818C99.6288 7.1919 111.782 6.30372 124.186 6.30372ZM135.878 7.35696C119.808 6.61812 103.411 7.41984 89.7216 9.61278C87.936 9.9036 85.9008 10.2573 84.5568 10.8704C83.424 11.3813 82.7136 12.238 83.5776 12.8747C84.1728 13.3148 85.4592 13.6371 87.4944 13.865C93.9264 14.5882 100.493 14.148 107.462 13.6764C111.61 13.3934 115.93 13.1026 120.192 13.0948C122.112 13.0869 124.051 13.1341 125.914 13.1812C128.294 13.2441 130.771 13.307 133.152 13.252C140.602 13.079 145.152 11.4599 145.248 9.99006C145.344 8.63814 141.754 7.6242 135.878 7.35696Z" fill="white" fill-opacity="0.06"/>
</svg>
